<?xml version="1.0" standalone="no"?>
<!DOCTYPE svg PUBLIC "-//W3C//DTD SVG 20010904//EN"
 "http://www.w3.org/TR/2001/REC-SVG-20010904/DTD/svg10.dtd">
<svg version="1.0" xmlns="http://www.w3.org/2000/svg"
 width="225.000000pt" height="225.000000pt" viewBox="0 0 225.000000 225.000000"
 preserveAspectRatio="xMidYMid meet">

<g transform="translate(0.000000,225.000000) scale(0.100000,-0.100000)"
fill="#FF681A" stroke="none">
<path d="M750 2131 c-148 -58 -247 -181 -272 -336 -21 -139 6 -342 50 -369 14
-8 -6 -56 -22 -56 -12 1 -58 76 -97 157 -13 29 -29 52 -34 53 -9 0 -113 -126
-175 -212 -8 -11 -30 -37 -47 -58 -18 -21 -33 -43 -33 -49 0 -27 86 -166 131
-212 53 -55 57 -64 34 -96 -59 -84 -230 -365 -240 -394 -27 -76 31 -97 172
-64 134 32 210 45 255 45 l46 0 22 -65 c12 -36 26 -67 31 -71 5 -3 18 -23 29
-43 58 -114 232 -230 375 -251 249 -35 446 15 580 148 62 61 143 189 154 245
6 29 10 32 49 35 23 2 97 -9 164 -24 68 -15 156 -29 195 -31 70 -5 73 -4 84
21 19 41 4 73 -134 290 l-127 198 53 53 c50 49 115 150 132 203 5 18 1 31 -18
50 -13 15 -62 77 -108 137 -104 137 -111 145 -124 145 -6 0 -21 -24 -35 -52
-39 -84 -84 -158 -96 -158 -6 0 -15 9 -20 21 -7 16 -3 35 19 79 55 110 48 329
-14 459 -54 114 -184 213 -283 215 -37 1 -41 -1 -44 -26 -2 -20 7 -36 47 -73
79 -74 121 -173 121 -287 0 -112 -14 -133 -57 -84 -20 23 -152 96 -174 96 -33
0 -133 76 -171 131 l-42 59 -27 -44 c-38 -60 -133 -135 -190 -149 -37 -9 -149
-73 -180 -103 -31 -30 -35 -24 -45 60 -12 104 26 209 113 314 51 61 58 85 29
104 -15 11 -25 9 -76 -11z m605 -1101 c72 -5 183 -21 249 -35 65 -14 122 -25
127 -25 21 0 8 -94 -21 -151 -87 -171 -284 -221 -427 -108 -98 78 -175 79
-267 2 -48 -40 -133 -73 -186 -73 -55 0 -139 35 -181 77 -50 48 -89 131 -92
195 l-2 53 50 13 c212 54 467 72 750 52z m69 -531 c33 -26 35 -71 3 -103 -53
-53 -218 -92 -345 -81 -77 6 -204 46 -234 73 -25 21 -22 66 6 99 23 27 25 27
67 15 92 -27 166 -41 219 -41 64 -1 152 18 195 42 40 22 57 21 89 -4z"/>
<path d="M724 885 c-7 -18 13 -45 33 -45 7 0 43 -10 79 -21 68 -22 89 -18 82
16 -2 11 -28 25 -78 41 -88 28 -109 29 -116 9z"/>
<path d="M1435 880 c-27 -10 -60 -19 -71 -19 -24 -1 -37 -22 -28 -46 8 -20 19
-19 90 5 32 11 66 20 75 20 23 0 41 24 33 44 -8 20 -36 19 -99 -4z"/>
</g>
</svg>
