<?xml version="1.0" standalone="no"?>
<!DOCTYPE svg PUBLIC "-//W3C//DTD SVG 20010904//EN"
 "http://www.w3.org/TR/2001/REC-SVG-20010904/DTD/svg10.dtd">
<svg version="1.0" xmlns="http://www.w3.org/2000/svg"
 width="241.000000pt" height="209.000000pt" viewBox="0 0 241.000000 209.000000"
 preserveAspectRatio="xMidYMid meet">

<g transform="translate(0.000000,209.000000) scale(0.100000,-0.100000)"
fill="#000080" stroke="none">
<path d="M468 1852 c-75 -130 -209 -363 -298 -517 -90 -154 -163 -284 -162
-290 0 -5 71 -134 159 -285 88 -151 219 -378 292 -505 73 -126 138 -236 143
-242 8 -10 142 -13 607 -13 l596 0 80 138 c385 665 518 898 518 907 0 6 -103
188 -228 405 -126 217 -260 450 -299 518 l-70 122 -601 0 -600 0 -137 -238z
m915 -196 c157 -44 272 -137 337 -270 55 -113 74 -217 67 -370 -12 -297 -149
-483 -419 -572 -80 -27 -92 -28 -345 -32 l-263 -4 0 637 0 637 283 -4 c223 -4
294 -8 340 -22z"/>
<path d="M1020 1044 l0 -386 118 4 c139 6 206 28 275 89 87 76 128 218 108
376 -28 219 -137 302 -398 303 l-103 0 0 -386z"/>
</g>
</svg>
