<svg version="1.1" id="Layer_1" xmlns="http://www.w3.org/2000/svg" xmlns:xlink="http://www.w3.org/1999/xlink" x="0px" y="0px"
	 width="100%" viewBox="0 0 232 240" enable-background="new 0 0 232 240" xml:space="preserve">
<path fill="#FD5127" opacity="1.000000" stroke="none" 
	d="
M1.000001,140.000000 
	C1.000000,124.312439 1.000000,108.624878 1.348912,92.722961 
	C3.683525,87.373985 5.669227,82.239365 8.026246,77.183769 
	C9.454775,77.629250 10.684123,77.762299 11.543920,78.396423 
	C31.040977,92.775993 52.833298,100.791946 77.025764,102.391731 
	C78.122795,102.464279 79.116852,104.094063 80.091560,105.456764 
	C80.289902,126.213928 73.226707,144.328812 62.475693,162.306641 
	C64.443741,161.207397 65.586868,160.855774 66.333565,160.108231 
	C75.574501,150.856674 84.945221,141.721451 93.834656,132.140717 
	C96.310684,129.472137 98.511597,125.534416 98.784988,122.019196 
	C99.744942,109.675972 101.382454,97.579391 107.808853,86.785561 
	C110.066589,82.993454 110.027870,79.250885 110.004852,75.263062 
	C109.970085,69.239105 109.187614,63.077038 110.178444,57.219891 
	C112.110840,45.796799 118.440346,37.325817 129.657501,33.593529 
	C129.118103,35.750130 128.440552,37.467144 128.178772,39.245369 
	C127.051247,46.903912 125.412605,54.562527 125.195274,62.256012 
	C125.020164,68.454842 127.237679,74.457352 131.433380,79.738190 
	C138.681641,74.710243 145.533340,70.035019 152.263962,65.191559 
	C153.117218,64.577553 153.336105,63.082020 154.015396,61.682777 
	C156.188995,60.013908 158.187836,58.644707 160.204834,57.302818 
	C165.796143,53.583008 171.395020,49.874554 177.005264,46.619408 
	C177.019623,55.958244 177.019623,64.839287 177.019623,74.427155 
	C181.375488,72.948395 185.861465,76.489983 189.625778,71.999451 
	C204.389282,72.000130 218.694641,72.000069 233.000000,72.000000 
	C233.000000,75.361290 233.000000,78.722572 232.674957,82.271942 
	C231.577530,84.013222 230.805145,85.566422 229.618591,87.018433 
	C225.450790,87.633743 221.639221,88.130325 217.952866,89.101997 
	C191.473038,96.081779 169.458344,109.459747 155.787231,134.018982 
	C147.817932,148.335281 145.466858,163.396240 151.978943,179.146790 
	C153.428726,182.653336 154.521652,186.446640 154.968842,190.204300 
	C156.855896,206.060883 158.436691,221.953903 159.727997,237.915848 
	C157.762100,238.336639 156.138870,238.520126 154.659225,239.081894 
	C153.963669,239.345978 153.544434,240.337891 153.000000,241.000000 
	C132.979111,241.000000 112.958214,241.000000 92.691498,240.624527 
	C88.304276,239.008118 84.023529,238.105728 80.045364,236.468231 
	C61.859482,228.982544 45.536663,218.993256 32.764244,203.459213 
	C18.505615,186.117615 8.252693,167.066086 3.855326,144.952316 
	C3.503347,143.182266 1.979351,141.645294 1.000001,140.000000 
M160.410980,78.867271 
	C156.895798,80.739639 153.380630,82.612007 149.681763,84.582214 
	C155.871933,92.499733 170.213928,90.570160 174.226730,83.228424 
	C170.614288,79.613533 166.347809,77.898460 160.410980,78.867271 
z"/>
<path fill="#000000" opacity="1.000000" stroke="none" 
	d="
M233.000000,71.531342 
	C218.694641,72.000069 204.389282,72.000130 189.549286,71.567673 
	C188.500870,61.128361 185.902390,52.125256 176.990906,46.161613 
	C171.395020,49.874554 165.796143,53.583008 160.204834,57.302818 
	C158.187836,58.644707 156.188995,60.013908 153.690918,61.563652 
	C148.470123,57.191494 143.315674,52.979462 139.137512,47.955521 
	C135.431763,43.499638 132.810577,38.141796 129.710648,33.182106 
	C118.440346,37.325817 112.110840,45.796799 110.178444,57.219891 
	C109.187614,63.077038 109.970085,69.239105 110.004852,75.263062 
	C110.027870,79.250885 110.066589,82.993454 107.808853,86.785561 
	C101.382454,97.579391 99.744942,109.675972 98.784988,122.019196 
	C98.511597,125.534416 96.310684,129.472137 93.834656,132.140717 
	C84.945221,141.721451 75.574501,150.856674 66.333565,160.108231 
	C65.586868,160.855774 64.443741,161.207397 62.475693,162.306641 
	C73.226707,144.328812 80.289902,126.213928 80.461853,105.238304 
	C81.265938,98.657959 81.495560,92.741989 82.024818,86.852951 
	C83.555229,69.824089 88.107750,53.655602 97.064072,39.015930 
	C104.629570,26.649658 115.131088,17.713276 129.103897,12.894421 
	C140.078766,9.109484 151.131943,7.877553 162.751633,9.887168 
	C163.168686,7.292861 163.425873,5.295244 159.884995,4.923958 
	C156.872665,4.608094 153.908539,3.712667 150.974869,2.889128 
	C150.509796,2.758567 150.318085,1.654163 150.000000,1.000002 
	C177.587845,1.000000 205.175690,1.000000 233.000000,1.000000 
	C233.000000,24.353695 233.000000,47.708191 233.000000,71.531342 
z"/>
<path fill="#FFFFFF" opacity="1.000000" stroke="none" 
	d="
M149.531342,1.000002 
	C150.318085,1.654163 150.509796,2.758567 150.974869,2.889128 
	C153.908539,3.712667 156.872665,4.608094 159.884995,4.923958 
	C163.425873,5.295244 163.168686,7.292861 162.751633,9.887168 
	C151.131943,7.877553 140.078766,9.109484 129.103897,12.894421 
	C115.131088,17.713276 104.629570,26.649658 97.064072,39.015930 
	C88.107750,53.655602 83.555229,69.824089 82.024818,86.852951 
	C81.495560,92.741989 81.265938,98.657959 80.529160,104.780083 
	C79.116852,104.094063 78.122795,102.464279 77.025764,102.391731 
	C52.833298,100.791946 31.040977,92.775993 11.543920,78.396423 
	C10.684123,77.762299 9.454775,77.629250 8.193021,76.832848 
	C17.493673,55.881779 30.679113,38.127064 48.494991,24.134581 
	C61.155815,14.190844 74.797646,5.868003 91.036346,2.889818 
	C91.458885,2.812325 91.683228,1.654178 92.000000,1.000000 
	C111.020897,1.000000 130.041794,1.000000 149.531342,1.000002 
z"/>
<path fill="#000000" opacity="1.000000" stroke="none" 
	d="
M230.032745,87.119621 
	C230.805145,85.566422 231.577530,84.013222 232.674957,82.730011 
	C233.000000,135.569687 233.000000,188.139389 233.000000,241.000000 
	C206.646484,241.000000 180.291901,241.000000 153.468658,241.000000 
	C153.544434,240.337891 153.963669,239.345978 154.659225,239.081894 
	C156.138870,238.520126 157.762100,238.336639 160.078430,237.797516 
	C176.620087,232.124908 190.912018,223.967941 203.431763,212.943893 
	C208.271179,208.682587 206.311890,202.072372 206.774857,196.665878 
	C208.409958,177.571701 203.473740,159.331848 197.716187,141.339554 
	C193.500473,128.165466 196.648193,124.931679 206.580887,119.236534 
	C211.543396,116.391167 217.008789,114.429153 222.204498,111.978081 
	C223.078125,111.565941 224.212982,110.820847 224.420227,110.020622 
	C226.390564,102.412720 228.186600,94.759682 230.032745,87.119621 
z"/>
<path fill="#000000" opacity="1.000000" stroke="none" 
	d="
M1.000001,140.468658 
	C1.979351,141.645294 3.503347,143.182266 3.855326,144.952316 
	C8.252693,167.066086 18.505615,186.117615 32.764244,203.459213 
	C45.536663,218.993256 61.859482,228.982544 80.045364,236.468231 
	C84.023529,238.105728 88.304276,239.008118 92.222839,240.624527 
	C61.735935,241.000000 31.471870,241.000000 1.000000,241.000000 
	C1.000000,207.646057 1.000000,174.291687 1.000001,140.468658 
z"/>
<path fill="#000000" opacity="1.000000" stroke="none" 
	d="
M91.531342,1.000000 
	C91.683228,1.654178 91.458885,2.812325 91.036346,2.889818 
	C74.797646,5.868003 61.155815,14.190844 48.494991,24.134581 
	C30.679113,38.127064 17.493673,55.881779 7.821704,76.753815 
	C5.669227,82.239365 3.683525,87.373985 1.348912,92.254303 
	C1.000000,61.739750 1.000000,31.479496 1.000000,1.000000 
	C31.020538,1.000000 61.041611,1.000000 91.531342,1.000000 
z"/>
<path fill="#FFFEFE" opacity="1.000000" stroke="none" 
	d="
M229.618576,87.018433 
	C228.186600,94.759682 226.390564,102.412720 224.420227,110.020622 
	C224.212982,110.820847 223.078125,111.565941 222.204498,111.978081 
	C217.008789,114.429153 211.543396,116.391167 206.580887,119.236534 
	C196.648193,124.931679 193.500473,128.165466 197.716187,141.339554 
	C203.473740,159.331848 208.409958,177.571701 206.774857,196.665878 
	C206.311890,202.072372 208.271179,208.682587 203.431763,212.943893 
	C190.912018,223.967941 176.620087,232.124908 160.479950,237.715271 
	C158.436691,221.953903 156.855896,206.060883 154.968842,190.204300 
	C154.521652,186.446640 153.428726,182.653336 151.978943,179.146790 
	C145.466858,163.396240 147.817932,148.335281 155.787231,134.018982 
	C169.458344,109.459747 191.473038,96.081779 217.952866,89.101997 
	C221.639221,88.130325 225.450790,87.633743 229.618576,87.018433 
z"/>
<path fill="#FFFCFB" opacity="1.000000" stroke="none" 
	d="
M129.657501,33.593529 
	C132.810577,38.141796 135.431763,43.499638 139.137512,47.955521 
	C143.315674,52.979462 148.470123,57.191494 153.524429,61.875778 
	C153.336105,63.082020 153.117218,64.577553 152.263962,65.191559 
	C145.533340,70.035019 138.681641,74.710243 131.433380,79.738190 
	C127.237679,74.457352 125.020164,68.454842 125.195274,62.256012 
	C125.412605,54.562527 127.051247,46.903912 128.178772,39.245369 
	C128.440552,37.467144 129.118103,35.750130 129.657501,33.593529 
z"/>
<path fill="#FFFDFD" opacity="1.000000" stroke="none" 
	d="
M177.005264,46.619408 
	C185.902390,52.125256 188.500870,61.128361 189.091156,71.566925 
	C185.861465,76.489983 181.375488,72.948395 177.019623,74.427155 
	C177.019623,64.839287 177.019623,55.958244 177.005264,46.619408 
z"/>
<path fill="#FFF6F4" opacity="1.000000" stroke="none" 
	d="
M160.794540,78.795120 
	C166.347809,77.898460 170.614288,79.613533 174.226730,83.228424 
	C170.213928,90.570160 155.871933,92.499733 149.681763,84.582214 
	C153.380630,82.612007 156.895798,80.739639 160.794540,78.795120 
z"/>
</svg>