<?xml version="1.0" standalone="no"?>
<!DOCTYPE svg PUBLIC "-//W3C//DTD SVG 1.1//EN" "http://www.w3.org/Graphics/SVG/1.1/DTD/svg11.dtd" >
<svg xmlns="http://www.w3.org/2000/svg" xmlns:xlink="http://www.w3.org/1999/xlink" version="1.1">
<metadata>
Created by FontForge 20201107 at Sat Feb 22 02:18:22 2020
 By Unknown
</metadata>
<defs>
<font id="AquireLight" horiz-adv-x="615" >
  <font-face 
    font-family="Aquire Light"
    font-weight="300"
    font-stretch="normal"
    units-per-em="1000"
    panose-1="0 0 0 0 0 0 0 0 0 0"
    ascent="800"
    descent="-200"
    cap-height="620.932"
    bbox="47.6143 -0.00195312 1016.17 700"
    underline-thickness="0"
    underline-position="0"
    unicode-range="U+000A-00AD"
  />
<missing-glyph horiz-adv-x="527" 
d="M50 700h427v-700h-427v700zM78 680l185 -309l186 309h-371zM251 350l-180 300v-601zM264 329l-185 -308h370zM276 350l181 -303v605z" />
    <glyph glyph-name=".notdef" horiz-adv-x="527" 
d="M50 700h427v-700h-427v700zM78 680l185 -309l186 309h-371zM251 350l-180 300v-601zM264 329l-185 -308h370zM276 350l181 -303v605z" />
    <glyph glyph-name=".null" horiz-adv-x="0" 
 />
    <glyph glyph-name=".null" horiz-adv-x="0" 
 />
    <glyph glyph-name="controlLF" unicode="&#xa;" horiz-adv-x="0" 
 />
    <glyph glyph-name="controlCR" unicode="&#xd;" horiz-adv-x="0" 
 />
    <glyph glyph-name="space" unicode=" " horiz-adv-x="379" 
 />
    <glyph glyph-name="zero" unicode="0" 
d="M546.038 530.74c13.9883 -24.8154 21.374 -53.0811 21.374 -81.793v-281.85c0 -31.7783 -8.94238 -62.6621 -25.8691 -89.3301c-5.55762 -8.7832 -11.9453 -17.0547 -18.9395 -24.5596l-0.0957031 -0.0957031l-0.0634766 -0.0957031
c-0.894531 -0.958008 -1.91699 -2.01172 -3.4502 -3.54492c-3.99219 -4.05566 -8.27148 -7.95215 -12.7432 -11.5928l-0.255859 -0.191406l-0.223633 -0.223633c-0.575195 -0.479492 -1.15039 -0.958984 -1.75684 -1.40625l-0.638672 -0.510742
c-0.862305 -0.703125 -1.75684 -1.37402 -2.61914 -2.0127l-0.734375 -0.542969c-1.3418 -0.990234 -2.68359 -1.94824 -4.05664 -2.90625l-0.12793 -0.0957031l-0.12793 -0.0634766c-1.30957 -0.958008 -2.68262 -1.85254 -4.02441 -2.74707
c-1.72461 -1.11816 -3.00195 -1.91699 -4.15137 -2.62012l-0.160156 -0.0634766l-0.12793 -0.0957031c-1.56543 -0.958008 -2.9707 -1.78809 -4.4082 -2.61816c-1.40527 -0.798828 -2.87402 -1.59766 -4.69434 -2.55566
c-1.11816 -0.606445 -2.23633 -1.18164 -3.41797 -1.78809c-4.9502 -2.45898 -10.2197 -4.75879 -15.7129 -6.83496l-0.12793 -0.0322266l-0.160156 -0.0634766c-1.14941 -0.447266 -2.33105 -0.862305 -3.54492 -1.24512l-0.12793 -0.0634766l-0.160156 -0.0634766
c-3.48145 -1.24512 -7.21777 -2.36328 -11.0508 -3.38574l-0.191406 -0.0634766c-1.72461 -0.479492 -3.44922 -0.894531 -5.0459 -1.27734c-1.69238 -0.382812 -3.38477 -0.765625 -5.10938 -1.11719l-0.319336 -0.0634766l-0.766602 -0.160156
c-0.447266 -0.0634766 -0.862305 -0.15918 -1.30957 -0.222656c-2.17188 -0.447266 -4.63086 -0.830078 -7.40918 -1.21289h-0.0322266l-1.50098 -0.191406c-3.60938 -0.510742 -7.1543 -0.862305 -10.6992 -1.08594c-3.48145 -0.223633 -7.25 -0.351562 -11.1465 -0.351562
h-185.59c-28.999 0 -57.5518 7.53711 -82.5586 21.8135l-0.12793 0.0634766l-0.0957031 0.0634766c-1.50098 0.830078 -2.77832 1.59668 -3.95996 2.33105l-0.319336 0.191406c-21.7812 13.3184 -40.4971 31.7461 -54.1348 53.2725
c-1.46875 2.33105 -2.77832 4.4707 -3.92773 6.57812l-0.0634766 0.12793l-0.0634766 0.0957031c-14.2764 25.0391 -21.8457 53.5596 -21.8457 82.5586v281.85c0 28.6797 7.37793 56.9443 21.335 81.7275l0.415039 0.670898l0.12793 0.287109
c1.24512 2.17188 2.55469 4.34375 3.99219 6.64355c14.6914 23.123 34.9395 42.4775 58.6689 55.9229c20.8555 11.9131 43.5947 19.0352 67.5479 21.1426h0.287109c0.702148 0.0957031 1.4043 0.12793 2.13867 0.160156l0.223633 0.0322266h0.191406
c3.80078 0.319336 7.76074 0.479492 12.168 0.479492s8.39941 -0.160156 12.168 -0.479492l0.925781 -0.0634766h159.4l0.925781 0.0634766c3.80078 0.319336 7.76074 0.479492 12.168 0.479492s8.39941 -0.160156 12.168 -0.479492h0.223633l0.191406 -0.0322266
c0.734375 -0.0322266 1.4375 -0.0644531 2.14062 -0.160156h0.287109c23.9531 -2.10742 46.6924 -9.22949 67.6113 -21.1738c23.666 -13.4141 43.9463 -32.7686 58.6055 -55.8916c1.56543 -2.45898 2.9707 -4.79004 4.28027 -7.15332
c0.0634766 -0.12793 0.126953 -0.255859 0.222656 -0.383789zM516.312 167.097v281.851c0 58.2861 -43.5312 107.693 -101.274 115.007c-0.894531 0.12793 -1.82031 0.223633 -2.87402 0.319336l-1.05371 0.0957031h-21.75l-1.05371 -0.12793
c-0.351562 -0.0322266 -0.734375 -0.0644531 -1.08594 -0.0966797h-159.4c-0.382812 0.0322266 -0.797852 0.0957031 -1.24512 0.12793l-1.05371 0.0957031h-21.75l-1.05371 -0.12793c-0.894531 -0.0634766 -1.82031 -0.15918 -2.71484 -0.287109
c-57.7432 -7.31348 -101.274 -56.7207 -101.274 -115.007v-281.85c0 -63.9707 52.0264 -115.997 115.997 -115.997h185.59c63.9707 0 115.997 52.0264 115.997 115.997z" />
    <glyph glyph-name="one" unicode="1" horiz-adv-x="239" 
d="M47.6191 614.608h144.135v-614.608h-51.1006v563.508h-93.0342v51.1006z" />
    <glyph glyph-name="two" unicode="2" horiz-adv-x="638" 
d="M98.7197 166.491c0 -63.9707 52.3135 -116.029 116.636 -116.029h374.98v-50.4619h-374.98c-60.043 0 -115.902 32.1934 -145.764 83.9961c-14.3721 24.9756 -21.9736 53.4961 -21.9736 82.4951s7.60156 57.5195 21.9736 82.4951
c29.8613 51.8027 85.7207 83.9639 145.764 83.9639h207.243c64.3223 0 116.636 52.0586 116.636 115.998c0 63.9707 -52.3135 116.029 -116.636 116.029h-374.98v50.4619h374.98c60.043 0 115.87 -32.1934 145.731 -83.9961
c14.4043 -24.9434 22.0059 -53.4961 22.0059 -82.4951s-7.60156 -57.5195 -21.9736 -82.4629c-7.02637 -12.1367 -15.5537 -23.3789 -25.4229 -33.4717c-31.8418 -32.5762 -74.6064 -50.5254 -120.341 -50.5254h-207.243c-64.3223 0 -116.636 -52.0264 -116.636 -115.997z
" />
    <glyph glyph-name="three" unicode="3" horiz-adv-x="617" 
d="M519.498 291.719c14.5635 -14.5635 26.2568 -31.333 34.752 -49.8564c10.2842 -22.3564 15.458 -46.2773 15.458 -71.0928c0 -30.373 -8.04785 -60.2031 -23.3145 -86.2324c-28.8076 -49.1201 -79.8125 -80.6104 -136.438 -84.1553l-0.0634766 -0.0322266h-0.0957031
c-3.38574 -0.223633 -7.02637 -0.351562 -10.8271 -0.351562c-3.76855 0 -7.40918 0.12793 -10.7949 0.351562l-0.798828 0.0634766h-339.753v50.4619h376.513l2.49121 0.575195c55.7949 12.9346 94.791 62.0225 94.791 119.318
c0 38.5488 -18.5557 75.3408 -49.6631 98.3682l-5.9082 4.40723h-364.601v50.4619h311.137l1.37305 0.160156c14.6914 1.82031 28.7764 6.25977 41.8711 13.1904c0.382812 0.191406 0.765625 0.415039 1.21289 0.638672l0.191406 0.12793l0.382812 0.191406
c38.6123 21.3662 62.5977 61.959 62.5977 105.969c0 61.0967 -45.7031 112.74 -106.321 120.118l-1.3418 0.160156h-364.729v50.4619h351.346c59.8193 0 115.966 -31.9053 146.689 -83.293l0.0957031 -0.191406l0.415039 -0.703125
c15.3936 -26.0928 23.5381 -56.0186 23.5381 -86.5508c0 -30.5 -8.1123 -60.458 -23.5059 -86.5508c-7.47363 -12.6152 -16.4482 -24.1768 -26.668 -34.3652l-15.9053 -15.8096z" />
    <glyph glyph-name="four" unicode="4" horiz-adv-x="582" 
d="M483.408 615.438h51.0996v-615.438h-51.1006v282.169h-435.789v333.27h51.1006v-282.169h384.689v282.169z" />
    <glyph glyph-name="five" unicode="5" 
d="M541.535 256.428c16.9268 -26.668 25.8662 -57.5518 25.8662 -89.3301c0 -31.7461 -8.94238 -62.6621 -25.8691 -89.3301c-30.8516 -48.7051 -83.6445 -77.7686 -141.229 -77.7686h-352.688v51.1006h352.688c63.9707 0 115.997 52.0586 115.997 115.998
c0 58.3506 -43.5947 107.79 -101.434 115.04l-1.37305 0.160156h-365.878v333.27h51.1006v-0.0957031h395.771v-51.1006h-395.771v-230.974h285.65l1.02246 0.0957031c4.88672 0.447266 9.90137 0.670898 14.916 0.670898s10.0293 -0.223633 14.9795 -0.670898
c51.3555 -4.53516 98.5596 -33.3428 126.25 -77.0654z" />
    <glyph glyph-name="six" unicode="6" 
d="M541.535 256.428c16.9268 -26.668 25.8613 -57.5439 25.8613 -89.3223s-8.94238 -62.6621 -25.8691 -89.3301c-30.8516 -48.7051 -83.6445 -77.7686 -141.229 -77.7686h-185.59c-28.999 0 -57.5518 7.53711 -82.5586 21.8135l-0.0957031 0.0634766l-0.12793 0.0634766
c-1.50098 0.830078 -2.77832 1.59668 -3.95996 2.33105l-0.319336 0.191406l-6.5791 4.2793c-3.83301 2.55469 -7.56934 5.33301 -11.1787 8.27148c-3.86426 3.09766 -7.60059 6.41895 -11.1777 9.86816c-0.415039 0.382812 -0.797852 0.765625 -1.18066 1.14844
l-1.53223 1.53223c-0.479492 0.510742 -0.990234 1.02148 -1.46973 1.53223c-3.48145 3.57715 -6.80273 7.31348 -9.93262 11.1777c-2.90625 3.60938 -5.68457 7.3457 -8.27148 11.1787c-0.958008 1.40527 -1.88379 2.84277 -2.80957 4.28027
c-0.830078 1.30957 -1.59668 2.55469 -2.33105 3.7998l-1.72461 3.00195c-1.72461 3.03418 -3.38574 6.16406 -4.91895 9.32617c-3.89648 7.9209 -7.1543 16.2246 -9.74121 24.6562c-1.02246 3.41699 -1.98047 6.89844 -2.7793 10.3477
c-1.24512 5.26953 -2.23535 10.667 -2.9375 16.0322c-0.958008 7.31348 -1.46875 14.7871 -1.46875 22.1963v281.85c0 28.6797 7.37793 56.9443 21.335 81.6963l0.351562 0.606445l0.191406 0.382812c1.21387 2.17188 2.52344 4.34375 3.99219 6.64355
c14.6914 23.123 34.9395 42.4775 58.6689 55.9229c20.8555 11.9131 43.5947 19.0352 67.5479 21.1426h0.287109c0.447266 0.0634766 0.926758 0.0957031 1.40625 0.12793h0.223633l0.925781 0.0634766c3.80078 0.319336 7.76074 0.479492 12.168 0.479492
s8.39941 -0.160156 12.2002 -0.479492l0.894531 -0.0634766h337.645v-51.1006h-221.903l0.0957031 -0.223633h-115.838c-0.382812 0.0322266 -0.797852 0.0957031 -1.21289 0.12793l-1.05371 0.0957031h-21.7812l-1.05371 -0.12793
c-0.894531 -0.0634766 -1.82031 -0.15918 -2.71484 -0.287109c-57.7432 -7.31348 -101.274 -56.7207 -101.274 -115.007v-155.696l33.4707 19.0986c20.8232 11.9131 43.5625 19.0352 67.3877 21.1113l4.50293 0.382812c3.48145 0.223633 7.05859 0.319336 10.6357 0.319336
c5.01465 0 10.0293 -0.223633 14.916 -0.670898l1.02246 -0.0957031h153.716l1.02246 0.0957031c4.88672 0.447266 9.90137 0.670898 14.916 0.670898s10.0293 -0.223633 15.0117 -0.670898c51.3242 -4.56738 98.5283 -33.3428 126.219 -77.0654zM400.299 51.1084
c63.9707 0 115.996 52.0244 115.996 115.995c0 58.3184 -43.5947 107.79 -101.434 115.04l-1.37305 0.160156h-186.58l-0.766602 -0.0634766c-3.89648 -0.255859 -7.76074 -0.383789 -11.4336 -0.383789c-3.57715 0 -7.21777 0.12793 -10.7305 0.351562l-2.17188 0.12793
l-2.13965 -0.287109c-57.5518 -7.44141 -100.955 -56.8486 -100.955 -114.943c0 -63.9707 52.0586 -115.997 115.998 -115.997h185.59z" />
    <glyph glyph-name="seven" unicode="7" horiz-adv-x="547" 
d="M448.373 615.438h51.1006v-615.438h-51.1006v563.955h-400.754v51.1006h400.754v0.382812z" />
    <glyph glyph-name="eight" unicode="8" 
d="M511.929 291.399c11.4971 -10.3154 21.4629 -22.0957 29.6074 -34.9668c16.9268 -26.668 25.8691 -57.5518 25.8691 -89.3301s-8.94238 -62.6621 -25.8691 -89.3301c-30.8516 -48.7051 -83.6445 -77.7686 -141.229 -77.7686h-185.59
c-28.999 0 -57.5518 7.53711 -82.5586 21.8135l-0.0957031 0.0634766l-0.12793 0.0634766c-1.50098 0.830078 -2.77832 1.59668 -3.95996 2.33105l-0.319336 0.191406c-8.14453 4.98242 -15.9375 10.6992 -23.123 17.0225
c-4.79102 4.18359 -9.3584 8.71875 -13.6377 13.4141c-6.41992 7.08984 -12.2646 14.7871 -17.375 22.835c-1.50098 2.33105 -2.77832 4.4707 -3.92773 6.57812l-0.0634766 0.0957031l-0.0634766 0.12793c-2.61914 4.56738 -5.01465 9.32617 -7.18652 14.085
c-0.703125 1.59668 -1.40625 3.22559 -2.10938 4.85449c-8.33594 20.1846 -12.5518 41.583 -12.5518 63.6201c0 14.5957 1.88477 29.0957 5.58984 43.0205c0.925781 3.41699 1.94824 6.83398 3.06641 10.1553c2.77832 8.27148 6.22754 16.3838 10.2832 24.1123
c0.798828 1.5332 1.62891 3.06641 2.55469 4.69531c1.27734 2.2998 2.71484 4.72754 4.37598 7.34668c8.20801 12.9346 18.1729 24.7197 29.6064 35.0039l18.4922 16.6396l-18.5557 16.6074c-11.3701 10.2197 -21.3027 21.9727 -29.5107 34.9072
c-1.50098 2.33105 -2.77832 4.4707 -3.92773 6.57812l-0.191406 0.351562l-0.0634766 0.12793c-0.0634766 0.0634766 -0.0957031 0.15918 -0.15918 0.222656c-2.17188 3.86426 -4.21582 7.85645 -6.06836 11.8486c-0.958008 2.01172 -1.85254 4.08789 -2.71484 6.16406
c-0.862305 2.04395 -1.69238 4.15137 -2.49121 6.29102c-0.798828 2.2041 -1.59766 4.50391 -2.33203 6.77148c-0.734375 2.2998 -1.4375 4.63086 -2.07617 6.96191c-3.89648 14.2441 -5.87695 29.0635 -5.87695 44.042c0 14.5957 1.88477 29.0957 5.58984 43.0205
c0.925781 3.41699 1.94824 6.83398 3.06641 10.1553c2.77832 8.27148 6.22754 16.3838 10.2832 24.1123c0.766602 1.46875 1.56543 2.96973 2.39551 4.43848l0.351562 0.575195l0.160156 0.287109c1.24512 2.2041 2.55469 4.4082 4.02344 6.73926
c7.31348 11.5293 16.0322 22.1328 25.9014 31.5547c9.86914 9.45312 20.8877 17.6289 32.8008 24.3682c20.8232 11.9131 43.5625 19.0352 67.5156 21.1426h0.287109c0.703125 0.0957031 1.4375 0.12793 2.14062 0.160156l0.223633 0.0322266h0.191406
c3.80078 0.319336 7.76074 0.479492 12.168 0.479492s8.39941 -0.160156 12.168 -0.479492l0.925781 -0.0634766h159.4l0.925781 0.0634766c3.80078 0.319336 7.76074 0.479492 12.168 0.479492s8.39941 -0.160156 12.168 -0.479492h0.223633l0.191406 -0.0322266
c0.734375 -0.0322266 1.4375 -0.0644531 2.14062 -0.160156h0.287109c23.9531 -2.10742 46.6924 -9.22949 67.6113 -21.1738c23.666 -13.4141 43.9463 -32.7686 58.6055 -55.8916c1.56543 -2.45898 2.9707 -4.79004 4.28027 -7.15332
c0.0634766 -0.12793 0.126953 -0.255859 0.222656 -0.383789c13.9883 -24.8154 21.3662 -53.0801 21.3662 -81.792c0 -28.999 -7.53711 -57.5195 -21.8447 -82.5586l-0.0634766 -0.0957031l-0.0634766 -0.12793c-1.14941 -2.10742 -2.42676 -4.24707 -3.89551 -6.57812
c-8.14453 -12.8389 -18.1094 -24.5918 -29.6064 -34.9072l-18.5234 -16.6396zM98.7207 448.921c0 -58.0303 43.3701 -107.469 100.89 -114.942l2.13965 -0.287109l2.13965 0.12793c3.54492 0.223633 7.18555 0.351562 10.8262 0.351562
c5.01465 0 10.0293 -0.223633 14.916 -0.670898l1.02246 -0.0957031h153.716l1.02246 0.0957031c4.88672 0.447266 9.90137 0.670898 14.916 0.670898c3.12988 0 6.4834 -0.12793 10.5391 -0.383789l2.13965 -0.12793l2.10742 0.255859
c57.7109 7.40918 101.21 56.8486 101.21 115.039c0 58.2861 -43.5312 107.693 -101.274 115.007c-0.894531 0.12793 -1.82031 0.223633 -2.87402 0.319336l-1.05371 0.0957031h-21.75l-1.05371 -0.12793c-0.351562 -0.0322266 -0.734375 -0.0644531 -1.08594 -0.0966797
h-159.4c-0.382812 0.0322266 -0.797852 0.0957031 -1.21289 0.12793l-1.08594 0.0957031h-21.75l-1.05371 -0.12793c-0.894531 -0.0634766 -1.82031 -0.15918 -2.71484 -0.287109c-57.7432 -7.31348 -101.274 -56.7207 -101.274 -115.039zM400.307 51.1064
c63.9707 0 115.997 52.0264 115.997 115.997c0 58.0947 -43.4033 107.502 -100.955 114.976l-2.13965 0.255859l-2.13965 -0.12793c-3.64062 -0.223633 -7.28125 -0.351562 -10.7627 -0.351562c-3.76855 0 -7.63281 0.12793 -11.4971 0.383789l-0.734375 0.0634766h-161.157
l-0.766602 -0.0634766c-3.92871 -0.255859 -7.76172 -0.383789 -11.4346 -0.383789c-3.60938 0 -7.21875 0.12793 -10.7637 0.351562l-2.13965 0.12793l-2.13965 -0.287109c-57.5195 -7.44141 -100.955 -56.8486 -100.955 -114.976
c0 -63.9395 52.0586 -115.966 115.998 -115.966h185.59z" />
    <glyph glyph-name="nine" unicode="9" 
d="M545.559 531.475c14.3076 -25.0068 21.8516 -53.5615 21.8516 -82.5605v-281.85c0 -28.7119 -7.37793 -56.9443 -21.335 -81.7275l-0.351562 -0.606445l-0.160156 -0.287109c-1.21387 -2.2041 -2.55566 -4.4082 -4.02441 -6.73926
c-14.6592 -23.123 -34.9395 -42.4453 -58.6689 -55.9229c-20.8555 -11.9131 -43.5947 -19.0029 -67.5479 -21.1104l-0.12793 -0.0322266h-0.160156c-0.447266 -0.0322266 -0.926758 -0.0644531 -1.40625 -0.0966797h-0.447266l-0.925781 -0.0957031
c-3.76855 -0.287109 -7.66504 -0.447266 -11.9443 -0.447266s-8.17578 0.160156 -11.9443 0.447266l-0.925781 0.0957031h-325.796v51.1006h211.587l-0.12793 0.223633h114.113c0.351562 -0.0322266 0.734375 -0.0644531 1.08594 -0.0966797l0.0634766 -0.0322266h0.0957031
l0.990234 -0.0957031h21.7178l0.862305 0.0957031h0.160156l0.255859 0.0322266c0.862305 0.0957031 1.75684 0.15918 2.58691 0.287109c57.7432 7.31348 101.274 56.7207 101.274 115.007c0 58.127 -43.4355 107.566 -101.02 115.008l-2.23535 0.287109l-2.23535 -0.160156
c-3.29004 -0.223633 -6.83496 -0.351562 -10.5078 -0.351562c-5.01465 0 -10.0293 0.223633 -14.916 0.670898l-1.02246 0.0957031h-153.716l-1.02246 -0.0957031c-4.88672 -0.447266 -9.90137 -0.670898 -14.916 -0.670898s-10.0293 0.223633 -14.9795 0.670898
c-51.3555 4.56738 -98.5596 33.3428 -126.25 77.0654c-16.9268 26.668 -25.8691 57.5518 -25.8691 89.3301s8.94238 62.6621 25.8691 89.3301c30.8516 48.7051 83.6445 77.7686 141.196 77.7686h185.718c28.9678 -0.0322266 57.4883 -7.56934 82.4639 -21.8135
l0.12793 -0.0634766l0.0957031 -0.0634766c1.50098 -0.830078 2.77832 -1.59668 3.95996 -2.33105l0.319336 -0.191406c21.7812 -13.3184 40.4971 -31.7461 54.166 -53.2725c1.46875 -2.33105 2.74609 -4.4707 3.89551 -6.57812l0.0634766 -0.12793zM516.311 333.715
l0.000976562 115.2c0 63.5557 -51.707 115.582 -115.391 115.997h-186.963c-63.5244 -0.415039 -115.231 -52.4414 -115.231 -115.997c0 -58.3184 43.5947 -107.79 101.434 -115.04l1.37305 -0.160156h186.58l0.766602 0.0634766
c3.92871 0.255859 7.76074 0.383789 11.4336 0.383789c3.5127 0 7.02539 -0.0957031 10.5068 -0.319336c0.191406 -0.0322266 0.415039 -0.0322266 0.670898 -0.0644531l0.766602 -0.0634766h104.053z" />
    <glyph glyph-name="A" unicode="A" horiz-adv-x="736" 
d="M47.6191 0l225.415 433.327l30.2773 -58.7529l-194.819 -374.574h-60.873zM405.959 542.27l282.106 -542.27h-60.873l-234.199 450.282l-55.54 106.803l30.4043 58.4814z" />
    <glyph glyph-name="A" unicode="&#xe5;" horiz-adv-x="736" 
d="M47.6191 0l225.415 433.327l30.2773 -58.7529l-194.819 -374.574h-60.873zM405.959 542.27l282.106 -542.27h-60.873l-234.199 450.282l-55.54 106.803l30.4043 58.4814z" />
    <glyph glyph-name="A" unicode="&#xe4;" horiz-adv-x="736" 
d="M47.6191 0l225.415 433.327l30.2773 -58.7529l-194.819 -374.574h-60.873zM405.959 542.27l282.106 -542.27h-60.873l-234.199 450.282l-55.54 106.803l30.4043 58.4814z" />
    <glyph glyph-name="A" unicode="&#xe3;" horiz-adv-x="736" 
d="M47.6191 0l225.415 433.327l30.2773 -58.7529l-194.819 -374.574h-60.873zM405.959 542.27l282.106 -542.27h-60.873l-234.199 450.282l-55.54 106.803l30.4043 58.4814z" />
    <glyph glyph-name="A" unicode="&#xe2;" horiz-adv-x="736" 
d="M47.6191 0l225.415 433.327l30.2773 -58.7529l-194.819 -374.574h-60.873zM405.959 542.27l282.106 -542.27h-60.873l-234.199 450.282l-55.54 106.803l30.4043 58.4814z" />
    <glyph glyph-name="A" unicode="&#xe1;" horiz-adv-x="736" 
d="M47.6191 0l225.415 433.327l30.2773 -58.7529l-194.819 -374.574h-60.873zM405.959 542.27l282.106 -542.27h-60.873l-234.199 450.282l-55.54 106.803l30.4043 58.4814z" />
    <glyph glyph-name="A" unicode="&#xe0;" horiz-adv-x="736" 
d="M47.6191 0l225.415 433.327l30.2773 -58.7529l-194.819 -374.574h-60.873zM405.959 542.27l282.106 -542.27h-60.873l-234.199 450.282l-55.54 106.803l30.4043 58.4814z" />
    <glyph glyph-name="A" unicode="&#xc5;" horiz-adv-x="736" 
d="M47.6191 0l225.415 433.327l30.2773 -58.7529l-194.819 -374.574h-60.873zM405.959 542.27l282.106 -542.27h-60.873l-234.199 450.282l-55.54 106.803l30.4043 58.4814z" />
    <glyph glyph-name="A" unicode="&#xc4;" horiz-adv-x="736" 
d="M47.6191 0l225.415 433.327l30.2773 -58.7529l-194.819 -374.574h-60.873zM405.959 542.27l282.106 -542.27h-60.873l-234.199 450.282l-55.54 106.803l30.4043 58.4814z" />
    <glyph glyph-name="A" unicode="&#xc3;" horiz-adv-x="736" 
d="M47.6191 0l225.415 433.327l30.2773 -58.7529l-194.819 -374.574h-60.873zM405.959 542.27l282.106 -542.27h-60.873l-234.199 450.282l-55.54 106.803l30.4043 58.4814z" />
    <glyph glyph-name="A" unicode="&#xc2;" horiz-adv-x="736" 
d="M47.6191 0l225.415 433.327l30.2773 -58.7529l-194.819 -374.574h-60.873zM405.959 542.27l282.106 -542.27h-60.873l-234.199 450.282l-55.54 106.803l30.4043 58.4814z" />
    <glyph glyph-name="A" unicode="&#xc1;" horiz-adv-x="736" 
d="M47.6191 0l225.415 433.327l30.2773 -58.7529l-194.819 -374.574h-60.873zM405.959 542.27l282.106 -542.27h-60.873l-234.199 450.282l-55.54 106.803l30.4043 58.4814z" />
    <glyph glyph-name="A" unicode="&#xc0;" horiz-adv-x="736" 
d="M47.6191 0l225.415 433.327l30.2773 -58.7529l-194.819 -374.574h-60.873zM405.959 542.27l282.106 -542.27h-60.873l-234.199 450.282l-55.54 106.803l30.4043 58.4814z" />
    <glyph glyph-name="A" unicode="a" horiz-adv-x="736" 
d="M47.6191 0l225.415 433.327l30.2773 -58.7529l-194.819 -374.574h-60.873zM405.959 542.27l282.106 -542.27h-60.873l-234.199 450.282l-55.54 106.803l30.4043 58.4814z" />
    <glyph glyph-name="B" unicode="B" horiz-adv-x="643" 
d="M574.207 250.264c13.957 -24.8799 21.3037 -53.2373 21.3037 -81.9814c0 -28.6162 -7.28223 -56.8809 -21.1436 -81.6963c-29.6699 -53.3994 -86.04 -86.583 -147.137 -86.583c-7.25 0 -14.6279 0.479492 -21.9736 1.4375l-2.87402 0.382812l-2.87402 -0.382812
c-7.3457 -0.958008 -14.7236 -1.4375 -21.9736 -1.4375h-329.916v253.233l24.4004 -12.0723l26.7002 -13.2227v-174.571h350.611l2.2998 0.479492c53.623 11.4336 92.5547 59.5635 92.5547 114.433c0 56.0508 -39.9219 104.372 -94.9824 114.88l-2.07617 0.382812h-399.508
v190.987h51.1006v-136.502h296.317l1.82031 0.319336c56.5615 9.42188 97.6338 57.9668 97.6338 115.358c0 54.3896 -38.5166 102.392 -91.5654 114.145l-2.39551 0.542969h-352.911v53.5596h329.916c60.0752 0 116.062 -32.417 146.051 -84.6035l0.0957031 -0.191406
l0.0957031 -0.160156c0.319336 -0.510742 0.575195 -1.02148 0.862305 -1.56445l0.0634766 -0.12793l0.0957031 -0.12793c13.7334 -24.752 21.0156 -52.9531 21.0156 -81.4736c0 -28.8721 -7.44141 -57.3604 -21.4941 -82.3672l-0.287109 -0.479492l-0.160156 -0.287109
l-0.0957031 -0.191406l-0.191406 -0.351562c-4.72656 -8.20801 -10.2197 -16.0967 -16.3516 -23.5381l-16.6719 -20.1211l22.4844 -13.3496c9.22949 -5.49316 17.917 -11.8164 25.7734 -18.7793c14.2119 -12.583 26.125 -27.3701 35.3867 -43.9775z" />
    <glyph glyph-name="B" unicode="b" horiz-adv-x="643" 
d="M574.207 250.264c13.957 -24.8799 21.3037 -53.2373 21.3037 -81.9814c0 -28.6162 -7.28223 -56.8809 -21.1436 -81.6963c-29.6699 -53.3994 -86.04 -86.583 -147.137 -86.583c-7.25 0 -14.6279 0.479492 -21.9736 1.4375l-2.87402 0.382812l-2.87402 -0.382812
c-7.3457 -0.958008 -14.7236 -1.4375 -21.9736 -1.4375h-329.916v253.233l24.4004 -12.0723l26.7002 -13.2227v-174.571h350.611l2.2998 0.479492c53.623 11.4336 92.5547 59.5635 92.5547 114.433c0 56.0508 -39.9219 104.372 -94.9824 114.88l-2.07617 0.382812h-399.508
v190.987h51.1006v-136.502h296.317l1.82031 0.319336c56.5615 9.42188 97.6338 57.9668 97.6338 115.358c0 54.3896 -38.5166 102.392 -91.5654 114.145l-2.39551 0.542969h-352.911v53.5596h329.916c60.0752 0 116.062 -32.417 146.051 -84.6035l0.0957031 -0.191406
l0.0957031 -0.160156c0.319336 -0.510742 0.575195 -1.02148 0.862305 -1.56445l0.0634766 -0.12793l0.0957031 -0.12793c13.7334 -24.752 21.0156 -52.9531 21.0156 -81.4736c0 -28.8721 -7.44141 -57.3604 -21.4941 -82.3672l-0.287109 -0.479492l-0.160156 -0.287109
l-0.0957031 -0.191406l-0.191406 -0.351562c-4.72656 -8.20801 -10.2197 -16.0967 -16.3516 -23.5381l-16.6719 -20.1211l22.4844 -13.3496c9.22949 -5.49316 17.917 -11.8164 25.7734 -18.7793c14.2119 -12.583 26.125 -27.3701 35.3867 -43.9775z" />
    <glyph glyph-name="C" unicode="C" horiz-adv-x="695" 
d="M358.596 51.1006c94.2803 0 182.109 52.3457 227.589 134.489h57.1045c-21.75 -49.5029 -55.9551 -92.2998 -100.157 -124.94c-53.7188 -39.667 -117.53 -60.6504 -184.535 -60.6504c-75.085 0 -147.583 27.1152 -204.145 76.3955
c-56.0186 48.7686 -92.7471 115.901 -103.51 189.007c-2.2041 14.915 -3.32227 30.2451 -3.32227 45.5752c0 14.7549 1.05371 29.4785 3.09766 43.8184c10.3477 73.4883 46.9482 141.036 103.095 190.188c56.6572 49.6309 129.379 76.9697 204.784 76.9697
c68.7617 0 133.946 -22.0049 188.464 -63.5879c44.7451 -34.1729 79.6846 -80.3867 100.444 -132.285h-55.9551c-43.7227 88.4355 -133.596 144.773 -232.954 144.773c-123.312 0 -230.462 -87.7012 -254.767 -208.489
c-3.38574 -16.7676 -5.11035 -34.0459 -5.11035 -51.3877c0 -17.8848 1.85254 -35.8652 5.52539 -53.4629c25.1348 -119.606 132.094 -206.413 254.352 -206.413z" />
    <glyph glyph-name="C" unicode="&#xe7;" horiz-adv-x="695" 
d="M358.596 51.1006c94.2803 0 182.109 52.3457 227.589 134.489h57.1045c-21.75 -49.5029 -55.9551 -92.2998 -100.157 -124.94c-53.7188 -39.667 -117.53 -60.6504 -184.535 -60.6504c-75.085 0 -147.583 27.1152 -204.145 76.3955
c-56.0186 48.7686 -92.7471 115.901 -103.51 189.007c-2.2041 14.915 -3.32227 30.2451 -3.32227 45.5752c0 14.7549 1.05371 29.4785 3.09766 43.8184c10.3477 73.4883 46.9482 141.036 103.095 190.188c56.6572 49.6309 129.379 76.9697 204.784 76.9697
c68.7617 0 133.946 -22.0049 188.464 -63.5879c44.7451 -34.1729 79.6846 -80.3867 100.444 -132.285h-55.9551c-43.7227 88.4355 -133.596 144.773 -232.954 144.773c-123.312 0 -230.462 -87.7012 -254.767 -208.489
c-3.38574 -16.7676 -5.11035 -34.0459 -5.11035 -51.3877c0 -17.8848 1.85254 -35.8652 5.52539 -53.4629c25.1348 -119.606 132.094 -206.413 254.352 -206.413z" />
    <glyph glyph-name="C" unicode="&#xc7;" horiz-adv-x="695" 
d="M358.596 51.1006c94.2803 0 182.109 52.3457 227.589 134.489h57.1045c-21.75 -49.5029 -55.9551 -92.2998 -100.157 -124.94c-53.7188 -39.667 -117.53 -60.6504 -184.535 -60.6504c-75.085 0 -147.583 27.1152 -204.145 76.3955
c-56.0186 48.7686 -92.7471 115.901 -103.51 189.007c-2.2041 14.915 -3.32227 30.2451 -3.32227 45.5752c0 14.7549 1.05371 29.4785 3.09766 43.8184c10.3477 73.4883 46.9482 141.036 103.095 190.188c56.6572 49.6309 129.379 76.9697 204.784 76.9697
c68.7617 0 133.946 -22.0049 188.464 -63.5879c44.7451 -34.1729 79.6846 -80.3867 100.444 -132.285h-55.9551c-43.7227 88.4355 -133.596 144.773 -232.954 144.773c-123.312 0 -230.462 -87.7012 -254.767 -208.489
c-3.38574 -16.7676 -5.11035 -34.0459 -5.11035 -51.3877c0 -17.8848 1.85254 -35.8652 5.52539 -53.4629c25.1348 -119.606 132.094 -206.413 254.352 -206.413z" />
    <glyph glyph-name="C" unicode="c" horiz-adv-x="695" 
d="M358.596 51.1006c94.2803 0 182.109 52.3457 227.589 134.489h57.1045c-21.75 -49.5029 -55.9551 -92.2998 -100.157 -124.94c-53.7188 -39.667 -117.53 -60.6504 -184.535 -60.6504c-75.085 0 -147.583 27.1152 -204.145 76.3955
c-56.0186 48.7686 -92.7471 115.901 -103.51 189.007c-2.2041 14.915 -3.32227 30.2451 -3.32227 45.5752c0 14.7549 1.05371 29.4785 3.09766 43.8184c10.3477 73.4883 46.9482 141.036 103.095 190.188c56.6572 49.6309 129.379 76.9697 204.784 76.9697
c68.7617 0 133.946 -22.0049 188.464 -63.5879c44.7451 -34.1729 79.6846 -80.3867 100.444 -132.285h-55.9551c-43.7227 88.4355 -133.596 144.773 -232.954 144.773c-123.312 0 -230.462 -87.7012 -254.767 -208.489
c-3.38574 -16.7676 -5.11035 -34.0459 -5.11035 -51.3877c0 -17.8848 1.85254 -35.8652 5.52539 -53.4629c25.1348 -119.606 132.094 -206.413 254.352 -206.413z" />
    <glyph glyph-name="D" unicode="D" horiz-adv-x="649" 
d="M98.7197 101.913l-17.0234 -8.43164l-34.0771 -16.8633v398.901h51.1006v-373.606zM598.032 352.24c2.04395 -14.2764 3.10059 -28.999 3.10059 -43.7539c0 -15.3301 -1.14941 -30.6602 -3.35352 -45.6074c-20.2168 -137.619 -130.434 -245.536 -268.309 -262.878
h-281.85v51.1006h278.4l1.59668 0.223633c107.374 15.5537 194.532 97.4102 216.889 203.73c3.64062 17.5654 5.52539 35.5459 5.52539 53.4307c0 17.3418 -1.72461 34.6201 -5.11035 51.3555c-12.4873 62.0225 -47.2998 117.37 -98.0811 155.855
c-42.2217 31.9697 -92.46 50.1104 -145.316 52.4102l-0.479492 0.0322266h-253.426v51.4512h231.867l14.2441 -0.160156c74.6699 -0.830078 146.562 -28.5205 202.452 -78.0234c55.4121 -49.0566 91.5654 -116.189 101.85 -189.167z" />
    <glyph glyph-name="D" unicode="d" horiz-adv-x="649" 
d="M98.7197 101.913l-17.0234 -8.43164l-34.0771 -16.8633v398.901h51.1006v-373.606zM598.032 352.24c2.04395 -14.2764 3.10059 -28.999 3.10059 -43.7539c0 -15.3301 -1.14941 -30.6602 -3.35352 -45.6074c-20.2168 -137.619 -130.434 -245.536 -268.309 -262.878
h-281.85v51.1006h278.4l1.59668 0.223633c107.374 15.5537 194.532 97.4102 216.889 203.73c3.64062 17.5654 5.52539 35.5459 5.52539 53.4307c0 17.3418 -1.72461 34.6201 -5.11035 51.3555c-12.4873 62.0225 -47.2998 117.37 -98.0811 155.855
c-42.2217 31.9697 -92.46 50.1104 -145.316 52.4102l-0.479492 0.0322266h-253.426v51.4512h231.867l14.2441 -0.160156c74.6699 -0.830078 146.562 -28.5205 202.452 -78.0234c55.4121 -49.0566 91.5654 -116.189 101.85 -189.167z" />
    <glyph glyph-name="E" unicode="E" horiz-adv-x="638" 
d="M98.7197 308.294v-257.193h491.616v-51.1006h-542.717v475.839h51.1006v-116.444h427.262v-51.1006h-427.262zM590.336 568.459h-542.717v51.1006h542.717v-51.1006z" />
    <glyph glyph-name="E" unicode="&#xeb;" horiz-adv-x="638" 
d="M98.7197 308.294v-257.193h491.616v-51.1006h-542.717v475.839h51.1006v-116.444h427.262v-51.1006h-427.262zM590.336 568.459h-542.717v51.1006h542.717v-51.1006z" />
    <glyph glyph-name="E" unicode="&#xea;" horiz-adv-x="638" 
d="M98.7197 308.294v-257.193h491.616v-51.1006h-542.717v475.839h51.1006v-116.444h427.262v-51.1006h-427.262zM590.336 568.459h-542.717v51.1006h542.717v-51.1006z" />
    <glyph glyph-name="E" unicode="&#xe9;" horiz-adv-x="638" 
d="M98.7197 308.294v-257.193h491.616v-51.1006h-542.717v475.839h51.1006v-116.444h427.262v-51.1006h-427.262zM590.336 568.459h-542.717v51.1006h542.717v-51.1006z" />
    <glyph glyph-name="E" unicode="&#xe8;" horiz-adv-x="638" 
d="M98.7197 308.294v-257.193h491.616v-51.1006h-542.717v475.839h51.1006v-116.444h427.262v-51.1006h-427.262zM590.336 568.459h-542.717v51.1006h542.717v-51.1006z" />
    <glyph glyph-name="E" unicode="&#xcb;" horiz-adv-x="638" 
d="M98.7197 308.294v-257.193h491.616v-51.1006h-542.717v475.839h51.1006v-116.444h427.262v-51.1006h-427.262zM590.336 568.459h-542.717v51.1006h542.717v-51.1006z" />
    <glyph glyph-name="E" unicode="&#xca;" horiz-adv-x="638" 
d="M98.7197 308.294v-257.193h491.616v-51.1006h-542.717v475.839h51.1006v-116.444h427.262v-51.1006h-427.262zM590.336 568.459h-542.717v51.1006h542.717v-51.1006z" />
    <glyph glyph-name="E" unicode="&#xc9;" horiz-adv-x="638" 
d="M98.7197 308.294v-257.193h491.616v-51.1006h-542.717v475.839h51.1006v-116.444h427.262v-51.1006h-427.262zM590.336 568.459h-542.717v51.1006h542.717v-51.1006z" />
    <glyph glyph-name="E" unicode="&#xc8;" horiz-adv-x="638" 
d="M98.7197 308.294v-257.193h491.616v-51.1006h-542.717v475.839h51.1006v-116.444h427.262v-51.1006h-427.262zM590.336 568.459h-542.717v51.1006h542.717v-51.1006z" />
    <glyph glyph-name="E" unicode="e" horiz-adv-x="638" 
d="M98.7197 308.294v-257.193h491.616v-51.1006h-542.717v475.839h51.1006v-116.444h427.262v-51.1006h-427.262zM590.336 568.459h-542.717v51.1006h542.717v-51.1006z" />
    <glyph glyph-name="F" unicode="F" horiz-adv-x="638" 
d="M98.7197 475.839v-116.444h427.262v-51.1006h-427.262v-308.294h-51.1006v475.839h51.1006zM590.336 568.458h-542.717v51.1006h542.717v-51.1006z" />
    <glyph glyph-name="F" unicode="f" horiz-adv-x="638" 
d="M98.7197 475.839v-116.444h427.262v-51.1006h-427.262v-308.294h-51.1006v475.839h51.1006zM590.336 568.458h-542.717v51.1006h542.717v-51.1006z" />
    <glyph glyph-name="G" unicode="G" horiz-adv-x="677" 
d="M357.414 358.021h272.044v-358.021h-264.443c-84.252 -0 -163.585 31.8096 -223.372 89.5527c-60.6172 58.4463 -94.0244 136.406 -94.0244 219.54s33.4072 161.094 94.0254 219.54c59.7871 57.7432 139.12 89.5527 223.372 89.5527h263.166v-51.1006h-298.298
l-1.46875 -0.191406c-132.222 -17.5342 -231.931 -128.39 -231.931 -257.801s99.709 -240.267 231.931 -257.801l1.46875 -0.191406h248.475v255.82h-197.343z" />
    <glyph glyph-name="G" unicode="g" horiz-adv-x="677" 
d="M357.414 358.021h272.044v-358.021h-264.443c-84.252 -0 -163.585 31.8096 -223.372 89.5527c-60.6172 58.4463 -94.0244 136.406 -94.0244 219.54s33.4072 161.094 94.0254 219.54c59.7871 57.7432 139.12 89.5527 223.372 89.5527h263.166v-51.1006h-298.298
l-1.46875 -0.191406c-132.222 -17.5342 -231.931 -128.39 -231.931 -257.801s99.709 -240.267 231.931 -257.801l1.46875 -0.191406h248.475v255.82h-197.343z" />
    <glyph glyph-name="H" unicode="H" horiz-adv-x="632" 
d="M533.071 618.249h51.1006v-618.249h-51.1006v306.984h-434.353v-306.984h-51.1006v618.249h51.1006v-260.164h434.353v260.164z" />
    <glyph glyph-name="H" unicode="h" horiz-adv-x="632" 
d="M533.071 618.249h51.1006v-618.249h-51.1006v306.984h-434.353v-306.984h-51.1006v618.249h51.1006v-260.164h434.353v260.164z" />
    <glyph glyph-name="I" unicode="I" horiz-adv-x="146" 
d="M98.7197 0h-51.1006v620.932h51.1006v-620.932z" />
    <glyph glyph-name="I" unicode="&#xef;" horiz-adv-x="146" 
d="M98.7197 0h-51.1006v620.932h51.1006v-620.932z" />
    <glyph glyph-name="I" unicode="&#xee;" horiz-adv-x="146" 
d="M98.7197 0h-51.1006v620.932h51.1006v-620.932z" />
    <glyph glyph-name="I" unicode="&#xed;" horiz-adv-x="146" 
d="M98.7197 0h-51.1006v620.932h51.1006v-620.932z" />
    <glyph glyph-name="I" unicode="&#xec;" horiz-adv-x="146" 
d="M98.7197 0h-51.1006v620.932h51.1006v-620.932z" />
    <glyph glyph-name="I" unicode="&#xcf;" horiz-adv-x="146" 
d="M98.7197 0h-51.1006v620.932h51.1006v-620.932z" />
    <glyph glyph-name="I" unicode="&#xce;" horiz-adv-x="146" 
d="M98.7197 0h-51.1006v620.932h51.1006v-620.932z" />
    <glyph glyph-name="I" unicode="&#xcd;" horiz-adv-x="146" 
d="M98.7197 0h-51.1006v620.932h51.1006v-620.932z" />
    <glyph glyph-name="I" unicode="&#xcc;" horiz-adv-x="146" 
d="M98.7197 0h-51.1006v620.932h51.1006v-620.932z" />
    <glyph glyph-name="I" unicode="i" horiz-adv-x="146" 
d="M98.7197 0h-51.1006v620.932h51.1006v-620.932z" />
    <glyph glyph-name="J" unicode="J" horiz-adv-x="555" 
d="M456.421 622.113l51.0996 -0.000976562v-476.894c-22.2607 -35.2275 -51.9307 -66.207 -86.2002 -89.9688c-52.0898 -36.1211 -113.282 -55.252 -176.998 -55.252c-39.667 0 -78.375 7.40918 -114.976 21.9727c-29.5742 11.7529 -57.0088 27.9453 -81.7285 48.1621
v164.224h51.1006v-138.929l10.7314 -6.54688c40.625 -24.7197 87.2861 -37.7822 134.873 -37.7822c82.2393 0 157.899 37.8145 207.595 103.702l4.50293 5.97266v461.34z" />
    <glyph glyph-name="J" unicode="j" horiz-adv-x="555" 
d="M456.421 622.113l51.0996 -0.000976562v-476.894c-22.2607 -35.2275 -51.9307 -66.207 -86.2002 -89.9688c-52.0898 -36.1211 -113.282 -55.252 -176.998 -55.252c-39.667 0 -78.375 7.40918 -114.976 21.9727c-29.5742 11.7529 -57.0088 27.9453 -81.7285 48.1621
v164.224h51.1006v-138.929l10.7314 -6.54688c40.625 -24.7197 87.2861 -37.7822 134.873 -37.7822c82.2393 0 157.899 37.8145 207.595 103.702l4.50293 5.97266v461.34z" />
    <glyph glyph-name="K" unicode="K" horiz-adv-x="612" 
d="M98.7197 619.463v-261.952l-51.1006 -51.0684v313.021h51.1006zM254.671 309.764l309.764 -309.764h-72.3066l-273.61 273.61l-119.798 -119.798v-153.812h-51.1006v175.497l51.1006 51.1006v-0.542969l116.924 116.924l276.452 276.484h72.2432l-293.858 -293.891z" />
    <glyph glyph-name="K" unicode="k" horiz-adv-x="612" 
d="M98.7197 619.463v-261.952l-51.1006 -51.0684v313.021h51.1006zM254.671 309.764l309.764 -309.764h-72.3066l-273.61 273.61l-119.798 -119.798v-153.812h-51.1006v175.497l51.1006 51.1006v-0.542969l116.924 116.924l276.452 276.484h72.2432l-293.858 -293.891z" />
    <glyph glyph-name="L" unicode="L" horiz-adv-x="567" 
d="M98.7197 51.1006h421.098v-51.1006h-472.198v624.732h51.1006v-573.632z" />
    <glyph glyph-name="L" unicode="l" horiz-adv-x="567" 
d="M98.7197 51.1006h421.098v-51.1006h-472.198v624.732h51.1006v-573.632z" />
    <glyph glyph-name="M" unicode="M" horiz-adv-x="670" 
d="M47.6191 0v406.263l53.6006 -53.6006v-352.662h-53.6006zM525.607 518.022l96.6172 96.6182v-614.641h-53.6006v485.226l-40.0342 -40.0342l-136.751 -136.782l-25.9971 -25.9619l-6.86621 -6.83496l-21.6758 -21.6406l-196.046 196.043l-40.0342 40.002
l-53.6006 53.6006v75.8457l289.716 -289.716z" />
    <glyph glyph-name="M" unicode="m" horiz-adv-x="670" 
d="M47.6191 0v406.263l53.6006 -53.6006v-352.662h-53.6006zM525.607 518.022l96.6172 96.6182v-614.641h-53.6006v485.226l-40.0342 -40.0342l-136.751 -136.782l-25.9971 -25.9619l-6.86621 -6.83496l-21.6758 -21.6406l-196.046 196.043l-40.0342 40.002
l-53.6006 53.6006v75.8457l289.716 -289.716z" />
    <glyph glyph-name="N" unicode="N" horiz-adv-x="578" 
d="M47.6191 0v386.254l51.1006 -51.1006v-335.153h-51.1006zM479.129 619.846l51.0996 -0.000976562v-585.193l-57.6475 57.6475l-335.696 335.729l-38.165 38.1338l-51.1006 51.1006v72.2754l431.51 -431.51v461.818z" />
    <glyph glyph-name="N" unicode="&#xf1;" horiz-adv-x="578" 
d="M47.6191 0v386.254l51.1006 -51.1006v-335.153h-51.1006zM479.129 619.846l51.0996 -0.000976562v-585.193l-57.6475 57.6475l-335.696 335.729l-38.165 38.1338l-51.1006 51.1006v72.2754l431.51 -431.51v461.818z" />
    <glyph glyph-name="N" unicode="&#xd1;" horiz-adv-x="578" 
d="M47.6191 0v386.254l51.1006 -51.1006v-335.153h-51.1006zM479.129 619.846l51.0996 -0.000976562v-585.193l-57.6475 57.6475l-335.696 335.729l-38.165 38.1338l-51.1006 51.1006v72.2754l431.51 -431.51v461.818z" />
    <glyph glyph-name="N" unicode="n" horiz-adv-x="578" 
d="M47.6191 0v386.254l51.1006 -51.1006v-335.153h-51.1006zM479.129 619.846l51.0996 -0.000976562v-585.193l-57.6475 57.6475l-335.696 335.729l-38.165 38.1338l-51.1006 51.1006v72.2754l431.51 -431.51v461.818z" />
    <glyph glyph-name="O" unicode="O" horiz-adv-x="719" 
d="M359.362 623.455c171.889 0 311.712 -139.855 311.712 -311.744s-139.823 -311.712 -311.712 -311.712s-311.744 139.823 -311.744 311.712s139.855 311.744 311.744 311.744zM359.362 54.2939c141.931 0 257.417 115.486 257.417 257.417
c0 141.963 -115.486 257.449 -257.417 257.449c-141.963 0 -257.449 -115.486 -257.449 -257.449c0 -141.931 115.486 -257.417 257.449 -257.417z" />
    <glyph glyph-name="O" unicode="&#xf8;" horiz-adv-x="719" 
d="M359.362 623.455c171.889 0 311.712 -139.855 311.712 -311.744s-139.823 -311.712 -311.712 -311.712s-311.744 139.823 -311.744 311.712s139.855 311.744 311.744 311.744zM359.362 54.2939c141.931 0 257.417 115.486 257.417 257.417
c0 141.963 -115.486 257.449 -257.417 257.449c-141.963 0 -257.449 -115.486 -257.449 -257.449c0 -141.931 115.486 -257.417 257.449 -257.417z" />
    <glyph glyph-name="O" unicode="&#xf6;" horiz-adv-x="719" 
d="M359.362 623.455c171.889 0 311.712 -139.855 311.712 -311.744s-139.823 -311.712 -311.712 -311.712s-311.744 139.823 -311.744 311.712s139.855 311.744 311.744 311.744zM359.362 54.2939c141.931 0 257.417 115.486 257.417 257.417
c0 141.963 -115.486 257.449 -257.417 257.449c-141.963 0 -257.449 -115.486 -257.449 -257.449c0 -141.931 115.486 -257.417 257.449 -257.417z" />
    <glyph glyph-name="O" unicode="&#xf5;" horiz-adv-x="719" 
d="M359.362 623.455c171.889 0 311.712 -139.855 311.712 -311.744s-139.823 -311.712 -311.712 -311.712s-311.744 139.823 -311.744 311.712s139.855 311.744 311.744 311.744zM359.362 54.2939c141.931 0 257.417 115.486 257.417 257.417
c0 141.963 -115.486 257.449 -257.417 257.449c-141.963 0 -257.449 -115.486 -257.449 -257.449c0 -141.931 115.486 -257.417 257.449 -257.417z" />
    <glyph glyph-name="O" unicode="&#xf4;" horiz-adv-x="719" 
d="M359.362 623.455c171.889 0 311.712 -139.855 311.712 -311.744s-139.823 -311.712 -311.712 -311.712s-311.744 139.823 -311.744 311.712s139.855 311.744 311.744 311.744zM359.362 54.2939c141.931 0 257.417 115.486 257.417 257.417
c0 141.963 -115.486 257.449 -257.417 257.449c-141.963 0 -257.449 -115.486 -257.449 -257.449c0 -141.931 115.486 -257.417 257.449 -257.417z" />
    <glyph glyph-name="O" unicode="&#xf3;" horiz-adv-x="719" 
d="M359.362 623.455c171.889 0 311.712 -139.855 311.712 -311.744s-139.823 -311.712 -311.712 -311.712s-311.744 139.823 -311.744 311.712s139.855 311.744 311.744 311.744zM359.362 54.2939c141.931 0 257.417 115.486 257.417 257.417
c0 141.963 -115.486 257.449 -257.417 257.449c-141.963 0 -257.449 -115.486 -257.449 -257.449c0 -141.931 115.486 -257.417 257.449 -257.417z" />
    <glyph glyph-name="O" unicode="&#xf2;" horiz-adv-x="719" 
d="M359.362 623.455c171.889 0 311.712 -139.855 311.712 -311.744s-139.823 -311.712 -311.712 -311.712s-311.744 139.823 -311.744 311.712s139.855 311.744 311.744 311.744zM359.362 54.2939c141.931 0 257.417 115.486 257.417 257.417
c0 141.963 -115.486 257.449 -257.417 257.449c-141.963 0 -257.449 -115.486 -257.449 -257.449c0 -141.931 115.486 -257.417 257.449 -257.417z" />
    <glyph glyph-name="O" unicode="&#xd8;" horiz-adv-x="719" 
d="M359.362 623.455c171.889 0 311.712 -139.855 311.712 -311.744s-139.823 -311.712 -311.712 -311.712s-311.744 139.823 -311.744 311.712s139.855 311.744 311.744 311.744zM359.362 54.2939c141.931 0 257.417 115.486 257.417 257.417
c0 141.963 -115.486 257.449 -257.417 257.449c-141.963 0 -257.449 -115.486 -257.449 -257.449c0 -141.931 115.486 -257.417 257.449 -257.417z" />
    <glyph glyph-name="O" unicode="&#xd6;" horiz-adv-x="719" 
d="M359.362 623.455c171.889 0 311.712 -139.855 311.712 -311.744s-139.823 -311.712 -311.712 -311.712s-311.744 139.823 -311.744 311.712s139.855 311.744 311.744 311.744zM359.362 54.2939c141.931 0 257.417 115.486 257.417 257.417
c0 141.963 -115.486 257.449 -257.417 257.449c-141.963 0 -257.449 -115.486 -257.449 -257.449c0 -141.931 115.486 -257.417 257.449 -257.417z" />
    <glyph glyph-name="O" unicode="&#xd5;" horiz-adv-x="719" 
d="M359.362 623.455c171.889 0 311.712 -139.855 311.712 -311.744s-139.823 -311.712 -311.712 -311.712s-311.744 139.823 -311.744 311.712s139.855 311.744 311.744 311.744zM359.362 54.2939c141.931 0 257.417 115.486 257.417 257.417
c0 141.963 -115.486 257.449 -257.417 257.449c-141.963 0 -257.449 -115.486 -257.449 -257.449c0 -141.931 115.486 -257.417 257.449 -257.417z" />
    <glyph glyph-name="O" unicode="&#xd4;" horiz-adv-x="719" 
d="M359.362 623.455c171.889 0 311.712 -139.855 311.712 -311.744s-139.823 -311.712 -311.712 -311.712s-311.744 139.823 -311.744 311.712s139.855 311.744 311.744 311.744zM359.362 54.2939c141.931 0 257.417 115.486 257.417 257.417
c0 141.963 -115.486 257.449 -257.417 257.449c-141.963 0 -257.449 -115.486 -257.449 -257.449c0 -141.931 115.486 -257.417 257.449 -257.417z" />
    <glyph glyph-name="O" unicode="&#xd3;" horiz-adv-x="719" 
d="M359.362 623.455c171.889 0 311.712 -139.855 311.712 -311.744s-139.823 -311.712 -311.712 -311.712s-311.744 139.823 -311.744 311.712s139.855 311.744 311.744 311.744zM359.362 54.2939c141.931 0 257.417 115.486 257.417 257.417
c0 141.963 -115.486 257.449 -257.417 257.449c-141.963 0 -257.449 -115.486 -257.449 -257.449c0 -141.931 115.486 -257.417 257.449 -257.417z" />
    <glyph glyph-name="O" unicode="&#xd2;" horiz-adv-x="719" 
d="M359.362 623.455c171.889 0 311.712 -139.855 311.712 -311.744s-139.823 -311.712 -311.712 -311.712s-311.744 139.823 -311.744 311.712s139.855 311.744 311.744 311.744zM359.362 54.2939c141.931 0 257.417 115.486 257.417 257.417
c0 141.963 -115.486 257.449 -257.417 257.449c-141.963 0 -257.449 -115.486 -257.449 -257.449c0 -141.931 115.486 -257.417 257.449 -257.417z" />
    <glyph glyph-name="O" unicode="o" horiz-adv-x="719" 
d="M359.362 623.455c171.889 0 311.712 -139.855 311.712 -311.744s-139.823 -311.712 -311.712 -311.712s-311.744 139.823 -311.744 311.712s139.855 311.744 311.744 311.744zM359.362 54.2939c141.931 0 257.417 115.486 257.417 257.417
c0 141.963 -115.486 257.449 -257.417 257.449c-141.963 0 -257.449 -115.486 -257.449 -257.449c0 -141.931 115.486 -257.417 257.449 -257.417z" />
    <glyph glyph-name="P" unicode="P" horiz-adv-x="584" 
d="M390.118 619.207c82.0479 -4.34375 146.338 -72.1484 146.338 -154.42c0 -39.1553 -14.6914 -76.5225 -41.3594 -105.202c-26.5078 -28.5205 -62.4053 -45.8945 -101.082 -48.8965l-14.1807 -1.11816h-281.115v-309.571h-51.1006v361.566h51.1006v-0.319336h283.096
c57.0723 0 103.542 46.4697 103.542 103.542c0 57.1045 -46.4697 103.542 -103.542 103.542c-2.49121 0 -4.79102 -0.0634766 -6.99512 -0.223633l-1.24512 -0.0966797h-274.855v-151.129l-26.125 -12.9023l-24.9756 -12.3594v227.812h338.156z" />
    <glyph glyph-name="P" unicode="p" horiz-adv-x="584" 
d="M390.118 619.207c82.0479 -4.34375 146.338 -72.1484 146.338 -154.42c0 -39.1553 -14.6914 -76.5225 -41.3594 -105.202c-26.5078 -28.5205 -62.4053 -45.8945 -101.082 -48.8965l-14.1807 -1.11816h-281.115v-309.571h-51.1006v361.566h51.1006v-0.319336h283.096
c57.0723 0 103.542 46.4697 103.542 103.542c0 57.1045 -46.4697 103.542 -103.542 103.542c-2.49121 0 -4.79102 -0.0634766 -6.99512 -0.223633l-1.24512 -0.0966797h-274.855v-151.129l-26.125 -12.9023l-24.9756 -12.3594v227.812h338.156z" />
    <glyph glyph-name="Q" unicode="Q" horiz-adv-x="715" 
d="M541.918 59.8828l16.958 -16.9922l42.7969 -42.8604l-53.0488 -0.0322266h-56.1787l1.94824 0.670898l-135.224 -0.638672h-1.18164l-0.606445 -0.0322266c-170.803 0 -309.764 138.961 -309.764 309.731c0 170.803 138.961 309.731 309.764 309.731
c170.771 0 309.731 -138.929 309.731 -309.731c0 -74.4785 -26.8271 -146.434 -75.5322 -202.644c-9.70898 -11.21 -20.3125 -21.8135 -31.4902 -31.4902zM520.87 109.48c13.4775 11.0186 25.9014 23.4424 36.8877 36.9199c37.5586 45.9902 58.2539 103.989 58.2539 163.329
c0 142.634 -116.029 258.632 -258.631 258.632c-142.634 0 -258.663 -115.998 -258.663 -258.632c0 -142.602 116.029 -258.631 258.663 -258.631c22.1006 0 44.042 2.81055 65.2168 8.36816c18.4277 4.79102 36.377 11.6895 53.3359 20.5039
c15.873 8.20801 30.9795 18.1084 44.9365 29.5098z" />
    <glyph glyph-name="Q" unicode="q" horiz-adv-x="715" 
d="M541.918 59.8828l16.958 -16.9922l42.7969 -42.8604l-53.0488 -0.0322266h-56.1787l1.94824 0.670898l-135.224 -0.638672h-1.18164l-0.606445 -0.0322266c-170.803 0 -309.764 138.961 -309.764 309.731c0 170.803 138.961 309.731 309.764 309.731
c170.771 0 309.731 -138.929 309.731 -309.731c0 -74.4785 -26.8271 -146.434 -75.5322 -202.644c-9.70898 -11.21 -20.3125 -21.8135 -31.4902 -31.4902zM520.87 109.48c13.4775 11.0186 25.9014 23.4424 36.8877 36.9199c37.5586 45.9902 58.2539 103.989 58.2539 163.329
c0 142.634 -116.029 258.632 -258.631 258.632c-142.634 0 -258.663 -115.998 -258.663 -258.632c0 -142.602 116.029 -258.631 258.663 -258.631c22.1006 0 44.042 2.81055 65.2168 8.36816c18.4277 4.79102 36.377 11.6895 53.3359 20.5039
c15.873 8.20801 30.9795 18.1084 44.9365 29.5098z" />
    <glyph glyph-name="R" unicode="R" horiz-adv-x="651" 
d="M415.062 309.061l188.468 -309.062h-59.8516l-184.919 303.248l-5.2373 8.59082l-8.7832 14.4355l-16.2881 -4.53516l-0.670898 -0.191406l-0.319336 -0.0957031l-0.0957031 -0.0322266h-0.0957031l-0.575195 -0.160156
c-1.27734 -0.351562 -2.52246 -0.734375 -3.7998 -1.02148l-0.766602 -0.191406l-0.351562 -0.12793l-0.351562 -0.0634766l-0.223633 -0.0634766l-0.382812 -0.0957031c-2.26758 -0.606445 -4.56738 -1.11719 -6.83496 -1.66016
c-5.30176 -1.21387 -10.667 -2.26758 -16.0645 -3.19336c-1.3418 -0.255859 -2.65137 -0.479492 -4.02441 -0.670898l-0.542969 -0.0634766l-0.542969 -0.0957031c-0.510742 -0.0957031 -1.02148 -0.191406 -1.53223 -0.254883l-0.382812 -0.0634766
c-1.88477 -0.287109 -3.80078 -0.574219 -5.68555 -0.797852l-0.255859 -0.0322266h-0.191406c-0.670898 -0.0957031 -1.3418 -0.191406 -1.98047 -0.254883l-0.510742 -0.0634766c-2.07617 -0.255859 -4.12012 -0.511719 -6.19629 -0.703125h-0.0957031
l-0.0634766 -0.0322266c-2.71484 -0.255859 -5.14258 -0.479492 -7.34668 -0.639648c-0.382812 -0.0322266 -0.765625 -0.0644531 -1.11719 -0.0966797c-2.2041 -0.160156 -4.4082 -0.288086 -6.64355 -0.416016h-0.255859l-0.223633 -0.0322266h-0.351562
l-0.575195 -0.0322266c-1.72461 -0.0634766 -3.48145 -0.126953 -5.07812 -0.19043l-1.75684 -0.0634766l-1.62891 -0.0322266c-2.13965 -0.0322266 -4.24707 -0.0644531 -6.38672 -0.0644531h-145.827v-310.242h-51.1006v361.343h196.928
c35.8018 0 70.4219 7.12207 102.87 21.1748c29.415 12.7109 55.9873 30.7236 79.0146 53.4629c29.7979 29.415 52.1865 65.792 64.8018 105.235l9.32617 29.1592h-401.84v-155.186l-23.1553 -11.4336l-27.9453 -13.8291v231.548h507.074v-1.11816
c0 -22.835 -2.49121 -45.543 -7.40918 -67.4844c-12.9023 -58.1582 -42.2529 -111.175 -84.9219 -153.236c-4.08789 -4.02441 -7.98438 -7.66504 -11.9443 -11.1777c-1.30957 -1.18164 -2.65137 -2.36328 -3.96094 -3.48145
c-0.255859 -0.223633 -0.511719 -0.415039 -0.735352 -0.638672c-1.75684 -1.50098 -3.54492 -2.93848 -5.36523 -4.43945l-0.0957031 -0.0957031l-0.0957031 -0.0634766c-1.21387 -1.02246 -2.49121 -2.04492 -3.86426 -3.13086
c-0.542969 -0.447266 -1.11816 -0.862305 -1.66113 -1.27734l-0.990234 -0.766602c-3.25781 -2.55469 -6.6748 -5.0459 -10.5078 -7.76074c-1.30957 -0.925781 -2.61914 -1.82031 -3.92871 -2.74609l-0.223633 -0.0957031l-1.30957 -0.894531
c-1.37305 -0.958008 -2.81055 -1.91602 -4.24805 -2.81055l-0.798828 -0.510742l-0.12793 -0.0957031l-0.415039 -0.255859c-0.160156 -0.12793 -0.320312 -0.223633 -0.511719 -0.351562c-0.319336 -0.191406 -0.670898 -0.415039 -0.990234 -0.606445l-18.4277 -11.7852
l11.3701 -18.6836z" />
    <glyph glyph-name="R" unicode="r" horiz-adv-x="651" 
d="M415.062 309.061l188.468 -309.062h-59.8516l-184.919 303.248l-5.2373 8.59082l-8.7832 14.4355l-16.2881 -4.53516l-0.670898 -0.191406l-0.319336 -0.0957031l-0.0957031 -0.0322266h-0.0957031l-0.575195 -0.160156
c-1.27734 -0.351562 -2.52246 -0.734375 -3.7998 -1.02148l-0.766602 -0.191406l-0.351562 -0.12793l-0.351562 -0.0634766l-0.223633 -0.0634766l-0.382812 -0.0957031c-2.26758 -0.606445 -4.56738 -1.11719 -6.83496 -1.66016
c-5.30176 -1.21387 -10.667 -2.26758 -16.0645 -3.19336c-1.3418 -0.255859 -2.65137 -0.479492 -4.02441 -0.670898l-0.542969 -0.0634766l-0.542969 -0.0957031c-0.510742 -0.0957031 -1.02148 -0.191406 -1.53223 -0.254883l-0.382812 -0.0634766
c-1.88477 -0.287109 -3.80078 -0.574219 -5.68555 -0.797852l-0.255859 -0.0322266h-0.191406c-0.670898 -0.0957031 -1.3418 -0.191406 -1.98047 -0.254883l-0.510742 -0.0634766c-2.07617 -0.255859 -4.12012 -0.511719 -6.19629 -0.703125h-0.0957031
l-0.0634766 -0.0322266c-2.71484 -0.255859 -5.14258 -0.479492 -7.34668 -0.639648c-0.382812 -0.0322266 -0.765625 -0.0644531 -1.11719 -0.0966797c-2.2041 -0.160156 -4.4082 -0.288086 -6.64355 -0.416016h-0.255859l-0.223633 -0.0322266h-0.351562
l-0.575195 -0.0322266c-1.72461 -0.0634766 -3.48145 -0.126953 -5.07812 -0.19043l-1.75684 -0.0634766l-1.62891 -0.0322266c-2.13965 -0.0322266 -4.24707 -0.0644531 -6.38672 -0.0644531h-145.827v-310.242h-51.1006v361.343h196.928
c35.8018 0 70.4219 7.12207 102.87 21.1748c29.415 12.7109 55.9873 30.7236 79.0146 53.4629c29.7979 29.415 52.1865 65.792 64.8018 105.235l9.32617 29.1592h-401.84v-155.186l-23.1553 -11.4336l-27.9453 -13.8291v231.548h507.074v-1.11816
c0 -22.835 -2.49121 -45.543 -7.40918 -67.4844c-12.9023 -58.1582 -42.2529 -111.175 -84.9219 -153.236c-4.08789 -4.02441 -7.98438 -7.66504 -11.9443 -11.1777c-1.30957 -1.18164 -2.65137 -2.36328 -3.96094 -3.48145
c-0.255859 -0.223633 -0.511719 -0.415039 -0.735352 -0.638672c-1.75684 -1.50098 -3.54492 -2.93848 -5.36523 -4.43945l-0.0957031 -0.0957031l-0.0957031 -0.0634766c-1.21387 -1.02246 -2.49121 -2.04492 -3.86426 -3.13086
c-0.542969 -0.447266 -1.11816 -0.862305 -1.66113 -1.27734l-0.990234 -0.766602c-3.25781 -2.55469 -6.6748 -5.0459 -10.5078 -7.76074c-1.30957 -0.925781 -2.61914 -1.82031 -3.92871 -2.74609l-0.223633 -0.0957031l-1.30957 -0.894531
c-1.37305 -0.958008 -2.81055 -1.91602 -4.24805 -2.81055l-0.798828 -0.510742l-0.12793 -0.0957031l-0.415039 -0.255859c-0.160156 -0.12793 -0.320312 -0.223633 -0.511719 -0.351562c-0.319336 -0.191406 -0.670898 -0.415039 -0.990234 -0.606445l-18.4277 -11.7852
l11.3701 -18.6836z" />
    <glyph glyph-name="S" unicode="S" horiz-adv-x="643" 
d="M215.355 568.746c-64.3223 0 -116.636 -52.3135 -116.636 -116.636s52.3135 -116.636 116.636 -116.636h207.243c60.0107 0 115.838 -32.417 145.699 -84.5713c14.4355 -25.167 22.0371 -53.9111 22.0371 -83.166s-7.60156 -57.999 -22.0059 -83.166
c-29.8936 -52.1543 -85.7207 -84.5713 -145.731 -84.5713h-374.98v51.1006h374.98c64.3223 0 116.636 52.3135 116.636 116.636s-52.3135 116.636 -116.636 116.636h-207.243c-60.0107 0 -115.838 32.417 -145.699 84.5713
c-14.4355 25.167 -22.0371 53.9111 -22.0371 83.166s7.60156 57.999 22.0059 83.166c29.8936 52.1543 85.7207 84.5713 145.731 84.5713h380.186v-51.1006h-380.186z" />
    <glyph glyph-name="S" unicode="s" horiz-adv-x="643" 
d="M215.355 568.746c-64.3223 0 -116.636 -52.3135 -116.636 -116.636s52.3135 -116.636 116.636 -116.636h207.243c60.0107 0 115.838 -32.417 145.699 -84.5713c14.4355 -25.167 22.0371 -53.9111 22.0371 -83.166s-7.60156 -57.999 -22.0059 -83.166
c-29.8936 -52.1543 -85.7207 -84.5713 -145.731 -84.5713h-374.98v51.1006h374.98c64.3223 0 116.636 52.3135 116.636 116.636s-52.3135 116.636 -116.636 116.636h-207.243c-60.0107 0 -115.838 32.417 -145.699 84.5713
c-14.4355 25.167 -22.0371 53.9111 -22.0371 83.166s7.60156 57.999 22.0059 83.166c29.8936 52.1543 85.7207 84.5713 145.731 84.5713h380.186v-51.1006h-380.186z" />
    <glyph glyph-name="T" unicode="T" horiz-adv-x="643" 
d="M341.988 0h-51.1006v475.743h51.1006v-475.743zM595.509 568.362h-547.891v51.1006h547.891v-51.1006z" />
    <glyph glyph-name="T" unicode="t" horiz-adv-x="643" 
d="M341.988 0h-51.1006v475.743h51.1006v-475.743zM595.509 568.362h-547.891v51.1006h547.891v-51.1006z" />
    <glyph glyph-name="U" unicode="U" horiz-adv-x="643" 
d="M544.122 619.846l51.1006 -0.000976562v-400.243c0 -45.543 -16.5117 -88.3711 -46.4688 -120.596c-12.3594 -13.2861 -25.9648 -25.5498 -40.4648 -36.5049c-54.1348 -40.8799 -118.681 -62.502 -186.708 -62.502c-68.1865 0 -132.828 21.6855 -187.026 62.7256
c-14.5635 11.0186 -28.2324 23.4102 -40.6562 36.8242c-29.8301 32.2891 -46.2783 75.0215 -46.2783 120.405v399.892h51.1006v-344.447c0 -119.99 96.3877 -220.562 214.845 -224.171c2.65039 -0.0957031 5.36523 -0.12793 8.01562 -0.12793
c2.55469 0 5.10938 0.0322266 7.63281 0.0957031c118.521 3.48145 214.908 104.021 214.908 224.171v344.479z" />
    <glyph glyph-name="U" unicode="&#xfc;" horiz-adv-x="643" 
d="M544.122 619.846l51.1006 -0.000976562v-400.243c0 -45.543 -16.5117 -88.3711 -46.4688 -120.596c-12.3594 -13.2861 -25.9648 -25.5498 -40.4648 -36.5049c-54.1348 -40.8799 -118.681 -62.502 -186.708 -62.502c-68.1865 0 -132.828 21.6855 -187.026 62.7256
c-14.5635 11.0186 -28.2324 23.4102 -40.6562 36.8242c-29.8301 32.2891 -46.2783 75.0215 -46.2783 120.405v399.892h51.1006v-344.447c0 -119.99 96.3877 -220.562 214.845 -224.171c2.65039 -0.0957031 5.36523 -0.12793 8.01562 -0.12793
c2.55469 0 5.10938 0.0322266 7.63281 0.0957031c118.521 3.48145 214.908 104.021 214.908 224.171v344.479z" />
    <glyph glyph-name="U" unicode="&#xfb;" horiz-adv-x="643" 
d="M544.122 619.846l51.1006 -0.000976562v-400.243c0 -45.543 -16.5117 -88.3711 -46.4688 -120.596c-12.3594 -13.2861 -25.9648 -25.5498 -40.4648 -36.5049c-54.1348 -40.8799 -118.681 -62.502 -186.708 -62.502c-68.1865 0 -132.828 21.6855 -187.026 62.7256
c-14.5635 11.0186 -28.2324 23.4102 -40.6562 36.8242c-29.8301 32.2891 -46.2783 75.0215 -46.2783 120.405v399.892h51.1006v-344.447c0 -119.99 96.3877 -220.562 214.845 -224.171c2.65039 -0.0957031 5.36523 -0.12793 8.01562 -0.12793
c2.55469 0 5.10938 0.0322266 7.63281 0.0957031c118.521 3.48145 214.908 104.021 214.908 224.171v344.479z" />
    <glyph glyph-name="U" unicode="&#xfa;" horiz-adv-x="643" 
d="M544.122 619.846l51.1006 -0.000976562v-400.243c0 -45.543 -16.5117 -88.3711 -46.4688 -120.596c-12.3594 -13.2861 -25.9648 -25.5498 -40.4648 -36.5049c-54.1348 -40.8799 -118.681 -62.502 -186.708 -62.502c-68.1865 0 -132.828 21.6855 -187.026 62.7256
c-14.5635 11.0186 -28.2324 23.4102 -40.6562 36.8242c-29.8301 32.2891 -46.2783 75.0215 -46.2783 120.405v399.892h51.1006v-344.447c0 -119.99 96.3877 -220.562 214.845 -224.171c2.65039 -0.0957031 5.36523 -0.12793 8.01562 -0.12793
c2.55469 0 5.10938 0.0322266 7.63281 0.0957031c118.521 3.48145 214.908 104.021 214.908 224.171v344.479z" />
    <glyph glyph-name="U" unicode="&#xf9;" horiz-adv-x="643" 
d="M544.122 619.846l51.1006 -0.000976562v-400.243c0 -45.543 -16.5117 -88.3711 -46.4688 -120.596c-12.3594 -13.2861 -25.9648 -25.5498 -40.4648 -36.5049c-54.1348 -40.8799 -118.681 -62.502 -186.708 -62.502c-68.1865 0 -132.828 21.6855 -187.026 62.7256
c-14.5635 11.0186 -28.2324 23.4102 -40.6562 36.8242c-29.8301 32.2891 -46.2783 75.0215 -46.2783 120.405v399.892h51.1006v-344.447c0 -119.99 96.3877 -220.562 214.845 -224.171c2.65039 -0.0957031 5.36523 -0.12793 8.01562 -0.12793
c2.55469 0 5.10938 0.0322266 7.63281 0.0957031c118.521 3.48145 214.908 104.021 214.908 224.171v344.479z" />
    <glyph glyph-name="U" unicode="&#xdc;" horiz-adv-x="643" 
d="M544.122 619.846l51.1006 -0.000976562v-400.243c0 -45.543 -16.5117 -88.3711 -46.4688 -120.596c-12.3594 -13.2861 -25.9648 -25.5498 -40.4648 -36.5049c-54.1348 -40.8799 -118.681 -62.502 -186.708 -62.502c-68.1865 0 -132.828 21.6855 -187.026 62.7256
c-14.5635 11.0186 -28.2324 23.4102 -40.6562 36.8242c-29.8301 32.2891 -46.2783 75.0215 -46.2783 120.405v399.892h51.1006v-344.447c0 -119.99 96.3877 -220.562 214.845 -224.171c2.65039 -0.0957031 5.36523 -0.12793 8.01562 -0.12793
c2.55469 0 5.10938 0.0322266 7.63281 0.0957031c118.521 3.48145 214.908 104.021 214.908 224.171v344.479z" />
    <glyph glyph-name="U" unicode="&#xdb;" horiz-adv-x="643" 
d="M544.122 619.846l51.1006 -0.000976562v-400.243c0 -45.543 -16.5117 -88.3711 -46.4688 -120.596c-12.3594 -13.2861 -25.9648 -25.5498 -40.4648 -36.5049c-54.1348 -40.8799 -118.681 -62.502 -186.708 -62.502c-68.1865 0 -132.828 21.6855 -187.026 62.7256
c-14.5635 11.0186 -28.2324 23.4102 -40.6562 36.8242c-29.8301 32.2891 -46.2783 75.0215 -46.2783 120.405v399.892h51.1006v-344.447c0 -119.99 96.3877 -220.562 214.845 -224.171c2.65039 -0.0957031 5.36523 -0.12793 8.01562 -0.12793
c2.55469 0 5.10938 0.0322266 7.63281 0.0957031c118.521 3.48145 214.908 104.021 214.908 224.171v344.479z" />
    <glyph glyph-name="U" unicode="&#xda;" horiz-adv-x="643" 
d="M544.122 619.846l51.1006 -0.000976562v-400.243c0 -45.543 -16.5117 -88.3711 -46.4688 -120.596c-12.3594 -13.2861 -25.9648 -25.5498 -40.4648 -36.5049c-54.1348 -40.8799 -118.681 -62.502 -186.708 -62.502c-68.1865 0 -132.828 21.6855 -187.026 62.7256
c-14.5635 11.0186 -28.2324 23.4102 -40.6562 36.8242c-29.8301 32.2891 -46.2783 75.0215 -46.2783 120.405v399.892h51.1006v-344.447c0 -119.99 96.3877 -220.562 214.845 -224.171c2.65039 -0.0957031 5.36523 -0.12793 8.01562 -0.12793
c2.55469 0 5.10938 0.0322266 7.63281 0.0957031c118.521 3.48145 214.908 104.021 214.908 224.171v344.479z" />
    <glyph glyph-name="U" unicode="&#xd9;" horiz-adv-x="643" 
d="M544.122 619.846l51.1006 -0.000976562v-400.243c0 -45.543 -16.5117 -88.3711 -46.4688 -120.596c-12.3594 -13.2861 -25.9648 -25.5498 -40.4648 -36.5049c-54.1348 -40.8799 -118.681 -62.502 -186.708 -62.502c-68.1865 0 -132.828 21.6855 -187.026 62.7256
c-14.5635 11.0186 -28.2324 23.4102 -40.6562 36.8242c-29.8301 32.2891 -46.2783 75.0215 -46.2783 120.405v399.892h51.1006v-344.447c0 -119.99 96.3877 -220.562 214.845 -224.171c2.65039 -0.0957031 5.36523 -0.12793 8.01562 -0.12793
c2.55469 0 5.10938 0.0322266 7.63281 0.0957031c118.521 3.48145 214.908 104.021 214.908 224.171v344.479z" />
    <glyph glyph-name="U" unicode="u" horiz-adv-x="643" 
d="M544.122 619.846l51.1006 -0.000976562v-400.243c0 -45.543 -16.5117 -88.3711 -46.4688 -120.596c-12.3594 -13.2861 -25.9648 -25.5498 -40.4648 -36.5049c-54.1348 -40.8799 -118.681 -62.502 -186.708 -62.502c-68.1865 0 -132.828 21.6855 -187.026 62.7256
c-14.5635 11.0186 -28.2324 23.4102 -40.6562 36.8242c-29.8301 32.2891 -46.2783 75.0215 -46.2783 120.405v399.892h51.1006v-344.447c0 -119.99 96.3877 -220.562 214.845 -224.171c2.65039 -0.0957031 5.36523 -0.12793 8.01562 -0.12793
c2.55469 0 5.10938 0.0322266 7.63281 0.0957031c118.521 3.48145 214.908 104.021 214.908 224.171v344.479z" />
    <glyph glyph-name="V" unicode="V" horiz-adv-x="741" 
d="M47.6191 582.799h64.5146l195.714 -353.646l-32.0977 -58.542zM628.949 582.799l64.5459 0.000976562l-283.415 -512.057l-39.1875 -70.7422l-2.96973 5.52539l-0.382812 -0.798828l-29.2549 52.8564l55.9863 101.179z" />
    <glyph glyph-name="V" unicode="v" horiz-adv-x="741" 
d="M47.6191 582.799h64.5146l195.714 -353.646l-32.0977 -58.542zM628.949 582.799l64.5459 0.000976562l-283.415 -512.057l-39.1875 -70.7422l-2.96973 5.52539l-0.382812 -0.798828l-29.2549 52.8564l55.9863 101.179z" />
    <glyph glyph-name="W" unicode="W" horiz-adv-x="1064" 
d="M956.054 621.507l60.1191 0.00195312l-245.444 -544.946l-31.1396 -69.126l-1.60938 4.8291l-3.35645 -8.63281l-32.8506 72.9297l-148.021 328.654l-21.8545 48.5742l-21.8896 -48.5742l-148.019 -328.619l-3.73633 -8.32324l-30.7275 -68.2734l-30.041 66.6279
v0.0322266l-4.45508 9.93555l-245.409 544.911h60.084l197.931 -439.472l21.8896 -48.5391l21.8545 48.5391l148.021 328.654l34.4961 76.5605l34.4609 -76.5605l147.782 -328.105l23.8418 -61.3525l20.6221 61.8984z" />
    <glyph glyph-name="W" unicode="w" horiz-adv-x="1064" 
d="M956.054 621.507l60.1191 0.00195312l-245.444 -544.946l-31.1396 -69.126l-1.60938 4.8291l-3.35645 -8.63281l-32.8506 72.9297l-148.021 328.654l-21.8545 48.5742l-21.8896 -48.5742l-148.019 -328.619l-3.73633 -8.32324l-30.7275 -68.2734l-30.041 66.6279
v0.0322266l-4.45508 9.93555l-245.409 544.911h60.084l197.931 -439.472l21.8896 -48.5391l21.8545 48.5391l148.021 328.654l34.4961 76.5605l34.4609 -76.5605l147.782 -328.105l23.8418 -61.3525l20.6221 61.8984z" />
    <glyph glyph-name="X" unicode="X" horiz-adv-x="632" 
d="M357.702 308.422l227.109 -308.421h-63.46l-187.123 254.128l-18.0449 24.4961l-0.12793 -0.160156l-31.7139 43.0195l0.160156 0.191406l-9.77246 13.2539l-8.65527 11.7529l-201.111 273.163h63.4277l161.157 -218.869l8.65527 -11.7529l18.0127 -24.4639
l18.0127 24.4639l8.65527 11.7529l161.157 218.869h63.46l-201.144 -273.163l-8.65527 -11.7529l-9.74121 -13.2539zM47.6201 0.000976562l179.234 243.396l31.7461 -43.0518l-147.521 -200.345h-63.46z" />
    <glyph glyph-name="X" unicode="x" horiz-adv-x="632" 
d="M357.702 308.422l227.109 -308.421h-63.46l-187.123 254.128l-18.0449 24.4961l-0.12793 -0.160156l-31.7139 43.0195l0.160156 0.191406l-9.77246 13.2539l-8.65527 11.7529l-201.111 273.163h63.4277l161.157 -218.869l8.65527 -11.7529l18.0127 -24.4639
l18.0127 24.4639l8.65527 11.7529l161.157 218.869h63.46l-201.144 -273.163l-8.65527 -11.7529l-9.74121 -13.2539zM47.6201 0.000976562l179.234 243.396l31.7461 -43.0518l-147.521 -200.345h-63.46z" />
    <glyph glyph-name="Y" unicode="Y" horiz-adv-x="614" 
d="M502.858 621.507l63.2373 -0.000976562l-210.469 -287.727l-6.93066 -9.45312l-0.382812 -0.479492l-0.223633 -0.319336l-9.00684 -12.3916l-2.26758 -3.09766l-4.31152 -5.87695v-302.162h-51.1006v301.938l-4.31152 5.87695l-2.39551 3.29004l-9.03809 12.4238
l-0.255859 0.319336l-0.223633 0.319336l-0.12793 0.160156l-6.93066 9.45312l-210.501 287.727h63.2686l177.925 -243.109l15.4902 -20.9512l18.4277 18.4277l1.24512 1.21387l1.02246 1.40527z" />
    <glyph glyph-name="Y" unicode="&#x178;" horiz-adv-x="614" 
d="M502.858 621.507l63.2373 -0.000976562l-210.469 -287.727l-6.93066 -9.45312l-0.382812 -0.479492l-0.223633 -0.319336l-9.00684 -12.3916l-2.26758 -3.09766l-4.31152 -5.87695v-302.162h-51.1006v301.938l-4.31152 5.87695l-2.39551 3.29004l-9.03809 12.4238
l-0.255859 0.319336l-0.223633 0.319336l-0.12793 0.160156l-6.93066 9.45312l-210.501 287.727h63.2686l177.925 -243.109l15.4902 -20.9512l18.4277 18.4277l1.24512 1.21387l1.02246 1.40527z" />
    <glyph glyph-name="Y" unicode="&#xff;" horiz-adv-x="614" 
d="M502.858 621.507l63.2373 -0.000976562l-210.469 -287.727l-6.93066 -9.45312l-0.382812 -0.479492l-0.223633 -0.319336l-9.00684 -12.3916l-2.26758 -3.09766l-4.31152 -5.87695v-302.162h-51.1006v301.938l-4.31152 5.87695l-2.39551 3.29004l-9.03809 12.4238
l-0.255859 0.319336l-0.223633 0.319336l-0.12793 0.160156l-6.93066 9.45312l-210.501 287.727h63.2686l177.925 -243.109l15.4902 -20.9512l18.4277 18.4277l1.24512 1.21387l1.02246 1.40527z" />
    <glyph glyph-name="Y" unicode="&#xfd;" horiz-adv-x="614" 
d="M502.858 621.507l63.2373 -0.000976562l-210.469 -287.727l-6.93066 -9.45312l-0.382812 -0.479492l-0.223633 -0.319336l-9.00684 -12.3916l-2.26758 -3.09766l-4.31152 -5.87695v-302.162h-51.1006v301.938l-4.31152 5.87695l-2.39551 3.29004l-9.03809 12.4238
l-0.255859 0.319336l-0.223633 0.319336l-0.12793 0.160156l-6.93066 9.45312l-210.501 287.727h63.2686l177.925 -243.109l15.4902 -20.9512l18.4277 18.4277l1.24512 1.21387l1.02246 1.40527z" />
    <glyph glyph-name="Y" unicode="&#xdd;" horiz-adv-x="614" 
d="M502.858 621.507l63.2373 -0.000976562l-210.469 -287.727l-6.93066 -9.45312l-0.382812 -0.479492l-0.223633 -0.319336l-9.00684 -12.3916l-2.26758 -3.09766l-4.31152 -5.87695v-302.162h-51.1006v301.938l-4.31152 5.87695l-2.39551 3.29004l-9.03809 12.4238
l-0.255859 0.319336l-0.223633 0.319336l-0.12793 0.160156l-6.93066 9.45312l-210.501 287.727h63.2686l177.925 -243.109l15.4902 -20.9512l18.4277 18.4277l1.24512 1.21387l1.02246 1.40527z" />
    <glyph glyph-name="Y" unicode="y" horiz-adv-x="614" 
d="M502.858 621.507l63.2373 -0.000976562l-210.469 -287.727l-6.93066 -9.45312l-0.382812 -0.479492l-0.223633 -0.319336l-9.00684 -12.3916l-2.26758 -3.09766l-4.31152 -5.87695v-302.162h-51.1006v301.938l-4.31152 5.87695l-2.39551 3.29004l-9.03809 12.4238
l-0.255859 0.319336l-0.223633 0.319336l-0.12793 0.160156l-6.93066 9.45312l-210.501 287.727h63.2686l177.925 -243.109l15.4902 -20.9512l18.4277 18.4277l1.24512 1.21387l1.02246 1.40527z" />
    <glyph glyph-name="Z" unicode="Z" horiz-adv-x="643" 
d="M95.8447 51.1006h499.696v-51.1006h-536.968zM447.414 532.816l25.9326 35.5459h-425.729v51.1006h526.301l-44.0098 -60.2666l-303.248 -415.477h-63.2051z" />
    <glyph glyph-name="Z" unicode="z" horiz-adv-x="643" 
d="M95.8447 51.1006h499.696v-51.1006h-536.968zM447.414 532.816l25.9326 35.5459h-425.729v51.1006h526.301l-44.0098 -60.2666l-303.248 -415.477h-63.2051z" />
    <glyph glyph-name="nonbreakingspace" unicode="&#xa0;" horiz-adv-x="379" 
 />
    <glyph glyph-name="softhyphen" unicode="&#xad;" horiz-adv-x="0" 
 />
    </font>
</defs>
</svg>
